<?xml version="1.0" encoding="UTF-8"?>
<svg width="185px" height="185px" viewBox="0 0 185 185" version="1.1" xmlns="http://www.w3.org/2000/svg" xmlns:xlink="http://www.w3.org/1999/xlink">
    <title>Group 48</title>
    <defs>
        <polygon id="path-1" points="0 184.341 184.342 184.341 184.342 0 0 0"></polygon>
    </defs>
    <g id="Accueil" stroke="none" stroke-width="1" fill="none" fill-rule="evenodd">
        <g id="Desktop-HD" transform="translate(-628.000000, -420.000000)">
            <g id="Group-48" transform="translate(628.000000, 420.000000)">
                <path d="M104.3293,167.7885 C104.3293,166.6775 103.6013,166.1505 102.5053,166.1505 L101.5083,166.1505 L101.5083,169.5405 L102.4763,169.5405 C103.8153,169.5405 104.3293,168.6575 104.3293,167.7885" id="Fill-1" fill="#004B93"></path>
                <path d="M87.4348,166.1503 L86.7218,166.1503 L86.7218,169.8833 L87.4058,169.8833 C88.9298,169.8833 89.4858,169.1703 89.4858,168.0583 C89.4858,166.6913 88.7168,166.1503 87.4348,166.1503" id="Fill-3" fill="#004B93"></path>
                <polygon id="Fill-5" fill="#004B93" points="56.178 148.2104 67.198 148.2104 61.689 134.4954"></polygon>
                <polygon id="Fill-7" fill="#004B93" points="94.8557 166.435 93.2897 171.393 96.4097 171.393 94.8847 166.435"></polygon>
                <path d="M72.1643,166.2069 L71.4083,166.2069 L71.4083,173.9859 L72.1643,173.9859 C74.3573,173.9859 75.4983,172.4899 75.4983,169.9399 C75.4983,167.8599 74.6143,166.2069 72.1643,166.2069" id="Fill-9" fill="#004B93"></path>
                <mask id="mask-2" fill="white">
                    <use xlink:href="#path-1"></use>
                </mask>
                <g id="Clip-12"></g>
                <path d="M0,184.341 L184.342,184.341 L184.342,0 L0,0 L0,184.341 Z M148.881,43.029 L163.326,43.031 C163.326,43.031 166.604,42.869 165.61,45.615 C154.563,81.447 118.946,79.553 92.196,83.599 C81.317,85.244 73.269,93.416 68.483,101.385 C63.681,109.378 60.385,121.529 60.385,121.529 C59.703,125.388 56.446,125.06 56.446,125.06 L36.559,125.066 C36.559,125.066 34.339,124.846 35.103,122.234 C35.103,122.234 38.67,108.377 42.778,101.609 L43.139,100.968 C50.379,88.83 63.203,81.866 94.727,78.775 C142.187,74.122 146.25,43.029 146.25,43.029 L148.881,43.029 Z M153.448,125.406 L131.798,125.406 C129.376,125.519 128.565,122.945 128.565,122.945 L115.052,83.463 C115.296,83.421 115.538,83.378 115.78,83.338 L116.308,83.278 C120.012,82.765 131.114,81.088 137.792,78.606 C137.792,78.606 139.591,78.04 140.171,79.744 L154.787,121.77 C156.391,125.398 153.448,125.406 153.448,125.406 L153.448,125.406 Z M94.824,137.824 C94.824,132.909 98.709,130.293 103.704,130.293 C105.528,130.293 107.707,130.61 109.612,131.284 L109.056,134.931 C107.033,134.138 105.924,133.781 103.864,133.781 C101.643,133.781 99.028,134.574 99.028,137.468 C99.028,142.779 110.918,141.551 110.918,150.668 C110.918,156.574 106.36,158.914 100.811,158.914 C98.868,158.914 96.965,158.358 95.142,157.764 L95.537,154.077 C96.886,154.632 99.265,155.425 101.285,155.425 C103.545,155.425 106.716,154.157 106.716,150.906 C106.716,144.722 94.824,146.426 94.824,137.824 L94.824,137.824 Z M82.536,158.438 L86.501,158.438 L86.501,130.768 L82.536,130.768 L82.536,158.438 Z M82.533,162.574 L81.081,164.64 L80.169,164.64 L81.124,162.574 L82.533,162.574 Z M91.155,9.178 L111.614,9.178 C111.614,9.178 114.622,8.94 115.844,12.285 L120.618,25.369 L126.194,40.645 L122.906,40.645 C122.906,40.645 120.358,40.645 120.059,43.291 C120.051,43.364 119.92,44.014 119.903,44.087 C119.047,47.892 117.071,57.495 108.044,63.615 L94.006,25.373 L89.147,12.134 C89.147,12.134 87.592,9.178 91.155,9.178 L91.155,9.178 Z M63.816,47.148 L64.781,44.536 L68.356,34.868 C68.356,34.868 69.405,31.266 72.89,31.572 L90.471,31.572 C90.471,31.572 93.749,31.411 92.754,34.157 L88.998,44.524 L88.01,47.251 L78.875,72.459 C68.54,72.918 53.608,74.758 53.608,74.758 L63.816,47.148 Z M18.35,101.236 C19.789,98.645 24.543,88.808 36.184,82.705 C36.184,82.705 43.565,78.091 60.719,76.357 C60.719,76.357 75.685,74.75 76.463,74.642 C87.562,73.097 99.292,73.066 108.489,67.491 L110.38,66.237 C118.649,60.61 122.299,48.507 122.787,45.876 C122.803,45.803 122.905,45.42 122.921,45.348 C123.457,42.964 125.753,43.0604507 125.753,43.0604507 L129.04,43.0604507 L143.19,43.0604507 C136.64,68.557 109.748,74.702 90.934,77.052 C71.641,79.464 48.903,80.499 38.22,103.927 L29.24,103.976 L19.274,104.041 C19.274,104.041 16.909,103.829 18.35,101.236 L18.35,101.236 Z M23.903,166.606 C23.362,166.264 22.735,166.107 22.037,166.107 C20.413,166.107 18.931,167.404 18.931,169.826 C18.931,172.39 19.957,174.086 22.122,174.086 C22.764,174.086 23.391,173.915 23.903,173.616 L23.903,174.869 C23.305,175.054 22.678,175.169 22.093,175.169 C18.946,175.169 17.62,172.775 17.62,170.083 C17.62,166.977 19.43,165.024 22.023,165.024 C22.735,165.024 23.446,165.153 23.903,165.381 L23.903,166.606 Z M29.088,175.169 C26.88,175.169 25.469,173.273 25.469,170.196 C25.469,166.762 26.851,165.024 29.201,165.024 C31.41,165.024 32.821,166.919 32.821,169.997 C32.821,173.43 31.439,175.169 29.088,175.169 L29.088,175.169 Z M33.426,158.438 L17.887,158.438 L17.887,130.769 L21.851,130.769 L21.851,154.949 L33.426,154.949 L33.426,158.438 Z M41.324,175.068 L39.772,175.068 L36.025,166.919 L35.996,166.919 L35.996,175.068 L34.8,175.068 L34.8,165.125 L36.353,165.125 L40.1,173.331 L40.128,173.331 L40.128,165.125 L41.324,165.125 L41.324,175.068 Z M38.975,140.481 L35.566,140.481 L38.024,130.769 L42.463,130.769 L38.975,140.481 Z M45.412,175.169 C44.614,175.169 43.86,174.997 43.332,174.74 L43.332,173.445 C43.903,173.787 44.643,174.086 45.228,174.086 C46.353,174.086 46.993,173.331 46.993,172.518 C46.993,171.749 46.794,171.308 45.455,170.495 C43.659,169.413 43.261,168.8 43.261,167.518 C43.261,165.879 44.515,165.024 46.025,165.024 C46.681,165.024 47.378,165.167 47.821,165.353 L47.821,166.563 C47.35,166.278 46.737,166.107 46.125,166.107 C45.184,166.107 44.571,166.749 44.571,167.589 C44.571,168.23 44.828,168.629 46.253,169.456 C47.791,170.339 48.305,171.208 48.305,172.347 C48.305,173.929 47.321,175.169 45.412,175.169 L45.412,175.169 Z M55.057,175.068 L50.24,175.068 L50.24,165.125 L54.871,165.125 L54.871,166.208 L51.494,166.208 L51.494,169.37 L54.715,169.37 L54.715,170.453 L51.494,170.453 L51.494,173.986 L55.057,173.986 L55.057,175.068 Z M57.036,175.068 L58.29,175.068 L58.29,165.124 L57.036,165.124 L57.036,175.068 Z M65.198,175.068 L60.682,175.068 L60.682,165.125 L61.936,165.125 L61.936,173.986 L65.198,173.986 L65.198,175.068 Z M54.909,151.461 L52.095,158.438 L47.933,158.438 L59.746,130.769 L63.906,130.769 L75.602,158.438 L71.28,158.438 L68.466,151.461 L54.909,151.461 Z M71.708,175.068 L70.155,175.068 L70.155,165.125 L72.321,165.125 C73.646,165.125 74.401,165.438 74.97,165.837 C75.854,166.449 76.809,167.703 76.809,169.94 C76.809,172.818 75.441,175.068 71.708,175.068 L71.708,175.068 Z M83.489,175.068 L78.674,175.068 L78.674,165.125 L83.304,165.125 L83.304,166.208 L79.927,166.208 L79.927,169.37 L83.147,169.37 L83.147,170.453 L79.927,170.453 L79.927,173.986 L83.489,173.986 L83.489,175.068 Z M87.562,170.909 L86.722,170.909 L86.722,175.068 L85.468,175.068 L85.468,165.125 L87.864,165.125 C88.86,165.125 89.487,165.395 90.013,165.894 C90.512,166.378 90.796,167.076 90.796,167.945 C90.796,169.883 89.671,170.909 87.562,170.909 L87.562,170.909 Z M97.534,175.068 L96.737,172.476 L92.946,172.476 L92.149,175.068 L90.895,175.068 L94.229,165.125 L95.597,165.125 L98.845,175.068 L97.534,175.068 Z M104.799,175.068 L103.659,171.707 C103.374,170.88 103.018,170.566 102.078,170.566 L101.508,170.566 L101.508,175.068 L100.254,175.068 L100.254,165.125 L102.805,165.125 C103.86,165.125 104.443,165.381 104.899,165.809 C105.412,166.292 105.64,166.977 105.64,167.703 C105.64,168.757 105.141,169.769 103.673,170.083 L103.673,170.111 C104.272,170.225 104.557,170.51 104.756,171.08 L106.153,175.068 L104.799,175.068 Z M112.292,166.208 L110.013,166.208 L110.013,175.068 L108.759,175.068 L108.759,166.208 L106.48,166.208 L106.48,165.125 L112.292,165.125 L112.292,166.208 Z M118.659,175.068 L113.845,175.068 L113.845,165.125 L118.474,165.125 L118.474,166.208 L115.098,166.208 L115.098,169.37 L118.318,169.37 L118.318,170.453 L115.098,170.453 L115.098,173.986 L118.659,173.986 L118.659,175.068 Z M119.202,130.769 L124.593,130.769 L136.802,153.047 L136.882,153.047 L136.882,130.769 L140.846,130.769 L140.846,158.438 L135.773,158.438 L123.245,135.684 L123.166,135.684 L123.166,158.438 L119.202,158.438 L119.202,130.769 Z M129.53,175.068 L128.332,175.068 L128.332,166.492 L128.304,166.492 L125.483,175.068 L124.571,175.068 L121.864,166.492 L121.835,166.492 L121.835,175.068 L120.639,175.068 L120.639,165.125 L122.576,165.125 L125.071,173.031 L125.099,173.031 L127.649,165.125 L129.53,165.125 L129.53,175.068 Z M136.737,175.068 L131.921,175.068 L131.921,165.125 L136.551,165.125 L136.551,166.208 L133.175,166.208 L133.175,169.37 L136.395,169.37 L136.395,170.453 L133.175,170.453 L133.175,173.986 L136.737,173.986 L136.737,175.068 Z M145.241,175.068 L143.688,175.068 L139.942,166.919 L139.912,166.919 L139.912,175.068 L138.715,175.068 L138.715,165.125 L140.268,165.125 L144.016,173.331 L144.043,173.331 L144.043,165.125 L145.241,165.125 L145.241,175.068 Z M150.325,175.068 L149.071,175.068 L149.071,166.208 L146.792,166.208 L146.792,165.125 L152.605,165.125 L152.605,166.208 L150.325,166.208 L150.325,175.068 Z M159.172,175.068 L158.375,172.476 L154.585,172.476 L153.787,175.068 L152.533,175.068 L155.867,165.125 L157.235,165.125 L160.483,175.068 L159.172,175.068 Z M166.408,175.068 L161.892,175.068 L161.892,165.125 L163.146,165.125 L163.146,173.986 L166.408,173.986 L166.408,175.068 Z M166.49,134.257 L154.956,134.257 L154.956,142.343 L165.46,142.343 L165.46,145.832 L154.956,145.832 L154.956,154.949 L166.49,154.949 L166.49,158.438 L150.991,158.438 L150.991,130.769 L166.49,130.769 L166.49,134.257 Z" id="Fill-11" fill="#004B93" mask="url(#mask-2)"></path>
                <path d="M29.2014,166.0502 C27.8904,166.0502 26.7794,167.1332 26.7794,170.1962 C26.7794,172.2052 27.4064,174.1422 29.0884,174.1422 C30.3984,174.1422 31.5104,173.0602 31.5104,169.9962 C31.5104,167.9882 30.8834,166.0502 29.2014,166.0502" id="Fill-13" fill="#004B93" mask="url(#mask-2)"></path>
                <polygon id="Fill-14" fill="#004B93" mask="url(#mask-2)" points="156.4934 166.435 154.9274 171.393 158.0474 171.393 156.5214 166.435"></polygon>
                <path d="M88.01,47.2509 L88.998,44.5239 L92.755,34.1579 C93.749,31.4119 90.471,31.5729 90.471,31.5729 L72.89,31.5729 C69.404,31.2659 68.355,34.8679 68.355,34.8679 L64.781,44.5359 L63.816,47.1479 L53.609,74.7579 C53.609,74.7579 68.539,72.9179 78.876,72.4589 L88.01,47.2509 Z" id="Fill-15" fill="#FFFFFF" mask="url(#mask-2)"></path>
                <path d="M94.0061,25.373 L108.0441,63.615 C117.0701,57.495 119.0471,47.892 119.9021,44.087 C119.9191,44.015 120.0501,43.364 120.0581,43.291 C120.3591,40.646 122.9061,40.646 122.9061,40.646 L126.1941,40.646 L120.6181,25.369 L115.8441,12.285 C114.6221,8.941 111.6131,9.178 111.6131,9.178 L91.1521,9.178 C87.5911,9.178 89.1471,12.134 89.1471,12.134 L94.0061,25.373 Z" id="Fill-16" fill="#FFFFFF" mask="url(#mask-2)"></path>
                <path d="M19.2737,104.0419 L29.2417,103.9759 L38.2197,103.9259 C48.9017,80.4999 71.6407,79.4639 90.9347,77.0529 C109.7487,74.7019 136.6407,68.5569 143.1897,43.0603667 L129.0407,43.0603667 L125.7527,43.0603667 C125.7527,43.0603667 123.4577,42.9649 122.9197,45.3489 C122.9047,45.4189 122.8037,45.8029 122.7887,45.8759 C122.2997,48.5069 118.6487,60.6099 110.3787,66.2369 L108.4897,67.4899 C99.2927,73.0659 87.5627,73.0959 76.4627,74.6419 C75.6837,74.7499 60.7187,76.3559 60.7187,76.3559 C43.5647,78.0909 36.1837,82.7049 36.1837,82.7049 C24.5427,88.8079 19.7897,98.6459 18.3497,101.2359 C16.9097,103.8289 19.2737,104.0419 19.2737,104.0419" id="Fill-17" fill="#FEFEFE" mask="url(#mask-2)"></path>
                <path d="M94.7268,78.7748 C63.2038,81.8658 50.3778,88.8298 43.1378,100.9678 L42.7778,101.6088 C38.6698,108.3778 35.1028,122.2338 35.1028,122.2338 C34.3388,124.8458 36.5598,125.0668 36.5598,125.0668 L56.4458,125.0598 C56.4458,125.0598 59.7038,125.3878 60.3848,121.5288 C60.3848,121.5288 63.6808,109.3778 68.4828,101.3838 C73.2688,93.4158 81.3168,85.2438 92.1958,83.5988 C118.9448,79.5528 154.5628,81.4468 165.6098,45.6148 C166.6028,42.8688 163.3258,43.0308 163.3258,43.0308 L148.8808,43.0288 L146.2498,43.0288 C146.2498,43.0288 142.1868,74.1218 94.7268,78.7748" id="Fill-18" fill="#FFFFFF" mask="url(#mask-2)"></path>
                <path d="M137.7922,78.6059 C131.1132,81.0889 120.0122,82.7649 116.3092,83.2779 L115.7782,83.3379 C115.5382,83.3789 115.2962,83.4209 115.0512,83.4619 L128.5642,122.9439 C128.5642,122.9439 129.3752,125.5189 131.7982,125.4059 L153.4482,125.4059 C153.4482,125.4059 156.3912,125.3979 154.7872,121.7719 L140.1712,79.7429 C139.5922,78.0419 137.7922,78.6059 137.7922,78.6059" id="Fill-19" fill="#FFFFFF" mask="url(#mask-2)"></path>
                <path d="M17.6204,170.0819 C17.6204,172.7739 18.9454,175.1679 22.0944,175.1679 C22.6784,175.1679 23.3054,175.0539 23.9034,174.8689 L23.9034,173.6159 C23.3904,173.9149 22.7634,174.0849 22.1224,174.0849 C19.9564,174.0849 18.9314,172.3899 18.9314,169.8259 C18.9314,167.4039 20.4124,166.1069 22.0364,166.1069 C22.7344,166.1069 23.3614,166.2639 23.9034,166.6059 L23.9034,165.3809 C23.4474,165.1529 22.7344,165.0239 22.0224,165.0239 C19.4304,165.0239 17.6204,166.9769 17.6204,170.0819" id="Fill-20" fill="#FFFFFF" mask="url(#mask-2)"></path>
                <path d="M29.2014,165.0248 C26.8494,165.0248 25.4694,166.7618 25.4694,170.1958 C25.4694,173.2738 26.8804,175.1688 29.0884,175.1688 C31.4384,175.1688 32.8204,173.4298 32.8204,169.9968 C32.8204,166.9198 31.4104,165.0248 29.2014,165.0248 M29.0884,174.1418 C27.4064,174.1418 26.7794,172.2048 26.7794,170.1958 C26.7794,167.1328 27.8904,166.0498 29.2014,166.0498 C30.8834,166.0498 31.5104,167.9878 31.5104,169.9968 C31.5104,173.0598 30.3984,174.1418 29.0884,174.1418" id="Fill-21" fill="#FFFFFF" mask="url(#mask-2)"></path>
                <polygon id="Fill-22" fill="#FFFFFF" mask="url(#mask-2)" points="40.1282 173.3305 40.1002 173.3305 36.3532 165.1245 34.8002 165.1245 34.8002 175.0685 35.9962 175.0685 35.9962 166.9195 36.0242 166.9195 39.7722 175.0685 41.3242 175.0685 41.3242 165.1245 40.1282 165.1245"></polygon>
                <path d="M46.2532,169.4555 C44.8282,168.6285 44.5712,168.2295 44.5712,167.5895 C44.5712,166.7485 45.1852,166.1075 46.1242,166.1075 C46.7362,166.1075 47.3502,166.2785 47.8182,166.5635 L47.8182,165.3525 C47.3782,165.1665 46.6812,165.0245 46.0242,165.0245 C44.5152,165.0245 43.2622,165.8795 43.2622,167.5175 C43.2622,168.7995 43.6602,169.4135 45.4552,170.4955 C46.7942,171.3075 46.9932,171.7485 46.9932,172.5185 C46.9932,173.3305 46.3532,174.0855 45.2272,174.0855 C44.6432,174.0855 43.9022,173.7865 43.3322,173.4445 L43.3322,174.7405 C43.8592,174.9975 44.6152,175.1685 45.4122,175.1685 C47.3212,175.1685 48.3052,173.9285 48.3052,172.3475 C48.3052,171.2075 47.7912,170.3385 46.2532,169.4555" id="Fill-23" fill="#FFFFFF" mask="url(#mask-2)"></path>
                <polygon id="Fill-24" fill="#FFFFFF" mask="url(#mask-2)" points="51.4944 170.4525 54.7144 170.4525 54.7144 169.3695 51.4944 169.3695 51.4944 166.2075 54.8714 166.2075 54.8714 165.1245 50.2404 165.1245 50.2404 175.0685 55.0574 175.0685 55.0574 173.9865 51.4944 173.9865"></polygon>
                <polygon id="Fill-25" fill="#FFFFFF" mask="url(#mask-2)" points="57.036 175.068 58.29 175.068 58.29 165.124 57.036 165.124"></polygon>
                <polygon id="Fill-26" fill="#FFFFFF" mask="url(#mask-2)" points="61.9358 165.1244 60.6818 165.1244 60.6818 175.0684 65.1988 175.0684 65.1988 173.9864 61.9358 173.9864"></polygon>
                <path d="M74.9709,165.8363 C74.4009,165.4383 73.6459,165.1253 72.3209,165.1253 L70.1559,165.1253 L70.1559,175.0683 L71.7069,175.0683 C75.4409,175.0683 76.8089,172.8173 76.8089,169.9403 C76.8089,167.7023 75.8539,166.4493 74.9709,165.8363 M72.1619,173.9853 L71.4079,173.9853 L71.4079,166.2073 L72.1619,166.2073 C74.6149,166.2073 75.4959,167.8593 75.4959,169.9403 C75.4959,172.4893 74.3579,173.9853 72.1619,173.9853" id="Fill-27" fill="#FFFFFF" mask="url(#mask-2)"></path>
                <polygon id="Fill-28" fill="#FFFFFF" mask="url(#mask-2)" points="79.927 170.4525 83.147 170.4525 83.147 169.3695 79.927 169.3695 79.927 166.2075 83.304 166.2075 83.304 165.1245 78.673 165.1245 78.673 175.0685 83.49 175.0685 83.49 173.9865 79.927 173.9865"></polygon>
                <polygon id="Fill-29" fill="#FFFFFF" mask="url(#mask-2)" points="81.0813 164.64 82.5343 162.575 81.1233 162.575 80.1693 164.64"></polygon>
                <path d="M87.8616,165.1244 L85.4686,165.1244 L85.4686,175.0684 L86.7216,175.0684 L86.7216,170.9084 L87.5626,170.9084 C89.6706,170.9084 90.7976,169.8824 90.7976,167.9454 C90.7976,167.0764 90.5116,166.3784 90.0116,165.8934 C89.4856,165.3954 88.8586,165.1244 87.8616,165.1244 M87.4056,169.8824 L86.7216,169.8824 L86.7216,166.1504 L87.4346,166.1504 C88.7166,166.1504 89.4856,166.6914 89.4856,168.0584 C89.4856,169.1704 88.9296,169.8824 87.4056,169.8824" id="Fill-30" fill="#FFFFFF" mask="url(#mask-2)"></path>
                <path d="M94.2288,165.1244 L90.8948,175.0684 L92.1488,175.0684 L92.9468,172.4754 L96.7368,172.4754 L97.5348,175.0684 L98.8448,175.0684 L95.5978,165.1244 L94.2288,165.1244 Z M93.2898,171.3924 L94.8558,166.4354 L94.8848,166.4354 L96.4098,171.3924 L93.2898,171.3924 Z" id="Fill-31" fill="#FFFFFF" mask="url(#mask-2)"></path>
                <path d="M103.6731,170.1107 L103.6731,170.0817 C105.1421,169.7687 105.6401,168.7567 105.6401,167.7027 C105.6401,166.9757 105.4121,166.2927 104.8991,165.8077 C104.4431,165.3807 103.8591,165.1237 102.8051,165.1237 L100.2541,165.1237 L100.2541,175.0687 L101.5081,175.0687 L101.5081,170.5667 L102.0781,170.5667 C103.0191,170.5667 103.3741,170.8797 103.6591,171.7057 L104.7991,175.0687 L106.1521,175.0687 L104.7561,171.0787 C104.5571,170.5097 104.2731,170.2237 103.6731,170.1107 M102.4771,169.5407 L101.5081,169.5407 L101.5081,166.1497 L102.5051,166.1497 C103.6031,166.1497 104.3291,166.6767 104.3291,167.7887 C104.3291,168.6577 103.8171,169.5407 102.4771,169.5407" id="Fill-32" fill="#FFFFFF" mask="url(#mask-2)"></path>
                <polygon id="Fill-33" fill="#FFFFFF" mask="url(#mask-2)" points="106.4797 166.2069 108.7587 166.2069 108.7587 175.0689 110.0127 175.0689 110.0127 166.2069 112.2917 166.2069 112.2917 165.1239 106.4797 165.1239"></polygon>
                <polygon id="Fill-34" fill="#FFFFFF" mask="url(#mask-2)" points="115.0979 170.4525 118.3179 170.4525 118.3179 169.3695 115.0979 169.3695 115.0979 166.2075 118.4739 166.2075 118.4739 165.1245 113.8439 165.1245 113.8439 175.0685 118.6589 175.0685 118.6589 173.9865 115.0979 173.9865"></polygon>
                <polygon id="Fill-35" fill="#FFFFFF" mask="url(#mask-2)" points="125.0979 173.0312 125.0699 173.0312 122.5769 165.1242 120.6389 165.1242 120.6389 175.0692 121.8349 175.0692 121.8349 166.4912 121.8649 166.4912 124.5709 175.0692 125.4829 175.0692 128.3039 166.4912 128.3319 166.4912 128.3319 175.0692 129.5289 175.0692 129.5289 165.1242 127.6479 165.1242"></polygon>
                <polygon id="Fill-36" fill="#FFFFFF" mask="url(#mask-2)" points="133.175 170.4525 136.394 170.4525 136.394 169.3695 133.175 169.3695 133.175 166.2075 136.551 166.2075 136.551 165.1245 131.921 165.1245 131.921 175.0685 136.737 175.0685 136.737 173.9865 133.175 173.9865"></polygon>
                <polygon id="Fill-37" fill="#FFFFFF" mask="url(#mask-2)" points="144.0442 173.3305 144.0152 173.3305 140.2692 165.1245 138.7162 165.1245 138.7162 175.0685 139.9122 175.0685 139.9122 166.9195 139.9402 166.9195 143.6892 175.0685 145.2402 175.0685 145.2402 165.1245 144.0442 165.1245"></polygon>
                <polygon id="Fill-38" fill="#FFFFFF" mask="url(#mask-2)" points="152.6057 165.1244 146.7927 165.1244 146.7927 166.2074 149.0717 166.2074 149.0717 175.0684 150.3257 175.0684 150.3257 166.2074 152.6057 166.2074"></polygon>
                <path d="M155.8665,165.1244 L152.5335,175.0684 L153.7865,175.0684 L154.5855,172.4754 L158.3745,172.4754 L159.1725,175.0684 L160.4835,175.0684 L157.2355,165.1244 L155.8665,165.1244 Z M154.9275,171.3924 L156.4935,166.4354 L156.5215,166.4354 L158.0475,171.3924 L154.9275,171.3924 Z" id="Fill-39" fill="#FFFFFF" mask="url(#mask-2)"></path>
                <polygon id="Fill-40" fill="#FFFFFF" mask="url(#mask-2)" points="163.1458 165.1244 161.8918 165.1244 161.8918 175.0684 166.4088 175.0684 166.4088 173.9864 163.1458 173.9864"></polygon>
                <polygon id="Fill-41" fill="#FFFFFF" mask="url(#mask-2)" points="21.8508 130.7685 17.8868 130.7685 17.8868 158.4375 33.4258 158.4375 33.4258 154.9485 21.8508 154.9485"></polygon>
                <polygon id="Fill-42" fill="#FFFFFF" mask="url(#mask-2)" points="35.5657 140.4809 38.9747 140.4809 42.4627 130.7689 38.0227 130.7689"></polygon>
                <path d="M75.6018,158.4379 L63.9088,130.7679 L59.7458,130.7679 L47.9328,158.4379 L52.0948,158.4379 L54.9098,151.4609 L68.4658,151.4609 L71.2808,158.4379 L75.6018,158.4379 Z M56.1778,148.2099 L61.6888,134.4949 L67.1978,148.2099 L56.1778,148.2099 Z" id="Fill-43" fill="#FFFFFF" mask="url(#mask-2)"></path>
                <polygon id="Fill-44" fill="#FFFFFF" mask="url(#mask-2)" points="82.536 158.439 86.501 158.439 86.501 130.769 82.536 130.769"></polygon>
                <path d="M101.2854,155.4252 C99.2644,155.4252 96.8864,154.6322 95.5374,154.0762 L95.1404,157.7632 C96.9654,158.3582 98.8684,158.9132 100.8084,158.9132 C106.3594,158.9132 110.9184,156.5732 110.9184,150.6682 C110.9184,141.5502 99.0264,142.7792 99.0264,137.4682 C99.0264,134.5742 101.6424,133.7802 103.8624,133.7802 C105.9244,133.7802 107.0334,134.1382 109.0564,134.9302 L109.6104,131.2832 C107.7074,130.6102 105.5274,130.2932 103.7044,130.2932 C98.7094,130.2932 94.8244,132.9092 94.8244,137.8242 C94.8244,146.4262 106.7164,144.7212 106.7164,150.9052 C106.7164,154.1562 103.5454,155.4252 101.2854,155.4252" id="Fill-45" fill="#FFFFFF" mask="url(#mask-2)"></path>
                <polygon id="Fill-46" fill="#FFFFFF" mask="url(#mask-2)" points="123.1663 135.684 123.2453 135.684 135.7713 158.438 140.8473 158.438 140.8473 130.768 136.8823 130.768 136.8823 153.046 136.8033 153.046 124.5943 130.768 119.2023 130.768 119.2023 158.438 123.1663 158.438"></polygon>
                <polygon id="Fill-47" fill="#FFFFFF" mask="url(#mask-2)" points="150.9915 158.4379 166.4905 158.4379 166.4905 154.9499 154.9565 154.9499 154.9565 145.8319 165.4615 145.8319 165.4615 142.3439 154.9565 142.3439 154.9565 134.2569 166.4905 134.2569 166.4905 130.7679 150.9915 130.7679"></polygon>
            </g>
        </g>
    </g>
</svg>