<?xml version="1.0" encoding="UTF-8"?>
<svg width="22px" height="21px" viewBox="0 0 22 21" version="1.1" xmlns="http://www.w3.org/2000/svg" xmlns:xlink="http://www.w3.org/1999/xlink">
    <title>Group</title>
    <g id="Fiche-concert" stroke="none" stroke-width="1" fill="none" fill-rule="evenodd">
        <g id="Ficheconcert_Desktop" transform="translate(-466.000000, -1212.000000)" fill="#F24C8A" fill-rule="nonzero">
            <g id="Left" transform="translate(165.000000, 784.000000)">
                <g id="Concert_dates" transform="translate(0.000000, 318.000000)">
                    <g id="Concert_dates_liste" transform="translate(0.000000, 110.000000)">
                        <g id="Concert_date_item" transform="translate(0.000000, 0.000000)">
                            <g id="Group" transform="translate(301.000000, 0.000000)">
                                <path d="M21.6333354,9.90231057 L19.0028833,9.90231057 L20.9784723,7.95274908 C21.121716,7.8113926 21.121716,7.58223108 20.9784723,7.44111583 L18.7227515,5.21511317 C18.579019,5.07303303 18.3470425,5.07303303 18.2037989,5.21438951 C17.8828451,5.53111485 17.4562919,5.70551883 17.0026055,5.70600128 C17.0023611,5.70600128 17.0018722,5.70600128 17.0016278,5.70600128 C16.5484303,5.70600128 16.122366,5.53183852 15.8021455,5.21583684 C15.1389715,4.56139978 15.1384826,3.49712543 15.8009233,2.84341204 C15.944167,2.70229678 15.944167,2.47289404 15.8009233,2.33177879 L13.545447,0.106017357 C13.4022033,-0.0353391188 13.1702268,-0.0353391188 13.0269832,0.106017357 L0.107432736,12.8551171 C-0.0358109122,12.9962323 -0.0358109122,13.2256351 0.107432736,13.3667503 L2.25755412,15.4885448 C2.27662069,15.5073602 2.30057611,15.5172503 2.32233154,15.531 C2.33602036,15.5515039 2.34530919,15.5741788 2.36339798,15.5922705 C2.43501981,15.6629488 2.52888595,15.6981673 2.6227521,15.6981673 C2.71661824,15.6981673 2.81048439,15.6629488 2.88210621,15.5922705 C3.46534741,15.0169545 4.39423114,14.9472412 5.05936078,15.4079764 C5.05960522,15.4222086 5.06156077,15.4359583 5.06156077,15.4501904 C5.06156077,16.3747968 4.29938723,17.1269291 3.36243688,17.1269291 C3.15979356,17.1269291 2.99577225,17.2887895 2.99577225,17.488763 L2.99577225,20.638166 C2.99577225,20.8381396 3.15979356,21 3.36243688,21 L17.2040266,21 L17.9373559,21 L21.6333354,21 C21.8359787,21 22,20.8381396 22,20.638166 L22,17.4890043 C22,17.2890307 21.8359787,17.1271703 21.6333354,17.1271703 C20.696385,17.1271703 19.9342115,16.3757617 19.9342115,15.4523614 C19.9342115,14.5267901 20.696385,13.7739342 21.6333354,13.7739342 C21.8359787,13.7739342 22,13.6120738 22,13.4121002 L22,10.2641445 C22,10.0644122 21.8359787,9.90231057 21.6333354,9.90231057 Z M13.2860929,0.873587842 L15.0446164,2.60894362 C14.3447759,3.54778219 14.4227532,4.87812513 15.2834373,5.72747009 C15.757168,6.1949596 16.3792757,6.42846312 17.0016278,6.42846312 C17.5086027,6.42846312 18.014111,6.27070351 18.4411531,5.9607324 L20.2006544,7.69705306 L17.9659557,9.90255179 L17.9373559,9.90255179 L17.7281126,9.90255179 L17.5022472,9.67966206 L17.2766262,9.90231057 L17.2040266,9.90231057 L13.2464931,9.90231057 L12.1686213,9.90231057 L11.8322546,9.90231057 C11.7016768,9.93439318 11.8602411,9.8707104 11.5688649,9.90255179 C11.2772443,9.93439318 10.0436299,9.90231057 10.4133977,9.90255179 L10.7590402,9.90255179 L9.63704646,9.90231057 L4.13658813,9.90231057 L10.4133977,3.70843648 L10.7590402,4.04952531 L11.277504,3.53789206 L10.9318615,3.19680323 L13.2860929,0.873587842 Z M2.64426309,14.8468925 L0.885250637,13.1110543 L2.99601669,11.0280967 L2.99601669,13.2649544 C2.99601669,13.2900415 2.99870556,13.3146462 3.00359442,13.3382861 C2.99870556,13.3619259 2.99601669,13.3865306 2.99601669,13.4116177 C2.99601669,13.6115913 3.160038,13.7734517 3.36268132,13.7734517 C3.93027817,13.7734517 4.43236426,14.0503753 4.74109588,14.4734799 C4.03172205,14.2797781 3.25268193,14.4073849 2.64426309,14.8468925 Z M19.2008822,15.4521202 C19.2008822,16.6514792 20.0992106,17.6450753 21.2666707,17.8204442 L21.2666707,20.276332 L17.9373559,20.276332 L17.9373559,19.7938867 L17.2040266,19.7938867 L17.2040266,20.276332 L3.72934595,20.276332 L3.72934595,17.8204442 C4.89680613,17.6450753 5.79513447,16.6507555 5.79513447,15.4501904 C5.79513447,15.3672098 5.7907345,15.2849529 5.78242343,15.2041433 C5.78095677,15.1780912 5.77753457,15.1522804 5.77044572,15.126952 C5.62597986,14.07498 4.7899845,13.2393848 3.72934595,13.0801778 L3.72934595,10.6259785 L17.2040266,10.6259785 L17.2040266,11.1084238 L17.9373559,11.1084238 L17.9373559,10.6259785 L21.2666707,10.6259785 L21.2666707,13.0801778 C20.0992106,13.2557879 19.2008822,14.2510726 19.2008822,15.4521202 Z" id="Shape"></path>
                                <rect id="Rectangle" x="17.2040266" y="12.0955069" width="1" height="1.57904349"></rect>
                                <rect id="Rectangle" x="17.2040266" y="14.6616335" width="1" height="1.57904349"></rect>
                                <rect id="Rectangle" x="17.2040266" y="17.2277601" width="1" height="1.57904349"></rect>
                                <path d="M8.97093905,11.4929328 C8.76829573,11.4929328 8.60427442,11.6547932 8.60427442,11.8547667 L8.60427442,18.7522873 C8.60427442,18.9522609 8.76829573,19.1141213 8.97093905,19.1141213 C9.17358237,19.1141213 9.33760368,18.9522609 9.33760368,18.7522873 L9.33760368,11.8547667 C9.33760368,11.6547932 9.17333793,11.4929328 8.97093905,11.4929328 Z" id="Path"></path>
                                <path d="M7.42532541,11.4929328 C7.2226821,11.4929328 7.05866079,11.6547932 7.05866079,11.8547667 L7.05866079,18.7522873 C7.05866079,18.9522609 7.2226821,19.1141213 7.42532541,19.1141213 C7.62796873,19.1141213 7.79199004,18.9522609 7.79199004,18.7522873 L7.79199004,11.8547667 C7.79199004,11.6547932 7.62796873,11.4929328 7.42532541,11.4929328 Z" id="Path"></path>
                                <polygon id="Rectangle" transform="translate(15.968787, 8.678907) rotate(45.000000) translate(-15.968787, -8.678907) " points="15.1764181 8.31993175 16.7659869 8.30939137 16.7611562 9.037883 15.1715875 9.04842337"></polygon>
                                <polygon id="Rectangle" transform="translate(12.291288, 5.050044) rotate(45.000000) translate(-12.291288, -5.050044) " points="11.4989186 4.69106864 13.0884873 4.68052827 13.0836567 5.4090199 11.494088 5.41956027"></polygon>
                                <polygon id="Rectangle" transform="translate(14.130086, 6.864452) rotate(45.000000) translate(-14.130086, -6.864452) " points="13.3377172 6.50547607 14.927286 6.4949357 14.9224554 7.22342733 13.3328866 7.2339677"></polygon>
                            </g>
                        </g>
                    </g>
                </g>
            </g>
        </g>
    </g>
</svg>