<?xml version="1.0" encoding="UTF-8"?>
<svg width="856px" height="191px" viewBox="0 0 856 191" version="1.1" xmlns="http://www.w3.org/2000/svg" xmlns:xlink="http://www.w3.org/1999/xlink">
    <title>Group 44</title>
    <defs>
        <polygon id="path-1" points="0 190.494 855.568 190.494 855.568 0 0 0"></polygon>
    </defs>
    <g id="Accueil" stroke="none" stroke-width="1" fill="none" fill-rule="evenodd">
        <g id="Desktop-HD" transform="translate(-292.000000, -417.000000)">
            <g id="Group-44" transform="translate(292.000000, 417.000000)">
                <polygon id="Fill-1" fill="#2B4691" points="190.184 190.417 855.567 190.417 855.567 0 190.184 0"></polygon>
                <polygon id="Fill-2" fill="#FFFFFF" points="1.003 189.49 189.5 189.49 189.5 1.094 1.003 1.094"></polygon>
                <path d="M0,190.494 L190.504,190.494 L190.504,0.092 L0,0.092 L0,190.494 Z M2.01,188.481 L188.488,188.481 L188.488,2.099 L2.01,2.099 L2.01,188.481 Z" id="Fill-3" fill="#2B4691"></path>
                <g id="Group-43">
                    <path d="M123.4713,18.0327 C114.9313,18.0327 107.1293,21.4947 101.5093,27.2467 C103.6263,29.1497 106.0453,31.2867 108.2373,33.1387 C112.1953,29.2677 117.5863,26.9527 123.4713,26.9527 C135.5063,26.9527 145.2963,36.7287 145.2963,48.7707 C145.2963,54.6777 143.0753,60.0227 138.8883,64.2117 L97.9153,105.2497 L64.0273,71.3127 C60.8783,72.3827 57.6383,73.2667 53.9933,73.8687 L94.7623,114.7067 C95.6003,115.5407 97.0123,116.5667 97.9153,116.5667 C98.8573,116.5667 100.2303,115.5407 101.0633,114.7067 L145.1823,70.5087 C151.0793,64.6137 154.1973,57.0957 154.1973,48.7707 C154.1973,31.8257 140.4203,18.0327 123.4713,18.0327" id="Fill-4" fill="#A0BF38"></path>
                    <path d="M167.3531,67.354 C163.2001,66.658 159.2621,65.817 155.4731,64.839 C153.2321,68.568 151.9921,70.189 149.8191,72.548 C152.9121,73.444 156.0821,74.231 159.3631,74.925 C158.9151,75.622 158.4721,76.313 158.0381,76.995 C143.2621,100.195 133.3661,115.749 148.0481,145.475 C145.0301,148.859 140.4561,152.155 134.6211,155.137 C126.2411,151.832 118.6741,150.16 112.1271,150.16 C99.1651,150.16 92.0441,156.667 89.2111,163.797 C67.2201,161.812 53.6051,150.64 48.6451,145.786 C58.6561,129.511 61.2101,114.306 56.2501,100.554 C50.9241,85.79 37.7591,77.681 29.9111,74.195 C29.7861,72.912 29.6101,70.259 29.3951,68.788 C33.6181,69.549 37.8191,69.929 41.9531,69.929 L41.9561,69.929 C60.7541,69.929 78.9731,61.867 95.1031,46.542 C93.1131,45.009 90.8851,43.072 88.3771,40.659 C74.0181,54.168 58.4351,61.017 41.9561,61.017 L41.9531,61.017 C36.4461,61.017 30.7611,60.238 25.0621,58.682 C23.5781,58.282 21.1091,57.675 19.9571,58.757 C18.8441,59.795 19.2251,62.339 19.5281,63.864 C20.4171,68.287 21.1301,75.241 21.1951,77.339 C21.2871,80.394 21.5421,80.603 24.3731,81.598 C27.6851,82.764 42.5041,88.695 47.8741,103.574 C52.1241,115.366 49.2331,128.895 39.3251,143.825 C37.6801,146.296 37.7571,146.74 39.5411,149.057 C40.2571,149.982 57.6491,171.301 92.2651,172.939 C96.3921,173.129 96.1651,172.71 96.8421,169.311 C98.1261,162.814 103.6451,159.073 112.1271,159.073 C117.9901,159.073 125.0141,160.824 133.0941,164.134 C134.8071,164.823 135.0521,164.823 136.7291,164.028 C146.1381,159.553 152.9461,154.325 156.9661,148.554 C158.4121,146.477 158.3871,146.058 157.2531,143.917 C143.0421,117.069 150.5921,105.266 165.5511,81.781 C167.1031,79.333 168.7241,76.79 170.4051,74.106 C172.2411,71.17 172.5351,68.233 167.3531,67.354" id="Fill-6" fill="#2B4691"></path>
                    <path d="M51.5245,55.268 C50.8785,53.189 50.5365,51.009 50.5365,48.771 C50.5365,36.729 60.3265,26.954 72.3575,26.954 C77.3315,26.954 81.9485,28.594 85.6535,31.456 C93.2415,37.603 96.5015,41.332 102.3985,46.348 C111.7135,54.259 121.4305,60.678 131.0835,65.378 C132.7815,63.596 135.0435,61.126 137.3825,58.508 C127.1355,53.83 116.0185,46.292 106.9415,38.504 C101.9525,34.224 95.7595,28.556 93.8515,26.8 L93.8515,26.792 C88.2745,21.324 80.6605,18.034 72.3575,18.034 C55.4175,18.034 41.6315,31.825 41.6315,48.771 C41.6315,51.262 41.9295,53.717 42.5055,56.08 C45.4275,56.094 48.5855,55.803 51.5245,55.268" id="Fill-8" fill="#2B4691"></path>
                    <path d="M248.6022,76.9389 L236.2232,76.9389 C229.5672,65.2199 226.4792,61.5799 223.8292,61.5799 L219.3972,61.5799 L219.3972,76.9389 L209.4792,76.9389 L209.4792,33.9739 L233.4482,33.9739 C242.2592,33.9739 245.2102,39.4589 245.2102,46.5459 C245.2102,52.7099 242.6282,58.0749 234.4942,58.5109 C237.3912,59.5439 240.5922,63.4399 248.6022,76.9389 L248.6022,76.9389 Z M219.3972,53.4529 L230.4292,53.4529 C232.5852,53.4529 234.1922,51.9079 234.1922,48.0899 C234.1922,44.2049 232.7662,42.4179 230.5472,42.4179 L219.3972,42.4179 L219.3972,53.4529 Z" id="Fill-10" fill="#A0BF38"></path>
                    <path d="M278.5983,76.0664 C275.4623,77.1144 270.7793,77.7984 267.2063,77.7984 C258.3273,77.7984 251.7393,73.9134 251.7393,60.9644 C251.7393,48.2704 257.5353,44.5094 266.5873,44.5094 C277.0643,44.5094 281.6243,47.7164 280.7593,63.9404 L261.4713,63.9404 C261.5963,68.9794 263.8753,69.9064 268.4283,69.9064 C270.7193,69.9064 274.8453,69.4754 277.1893,68.8584 L278.5983,76.0664 Z M260.9773,41.9274 L268.5583,33.9784 L278.2323,33.9784 L268.9943,41.9274 L260.9773,41.9274 Z M261.5323,56.9714 L272.4993,56.9714 C272.3783,52.5894 270.9643,51.6594 267.2673,51.6594 C263.3243,51.6594 262.0883,52.9604 261.5323,56.9714 L261.5323,56.9714 Z" id="Fill-12" fill="#A0BF38"></path>
                    <path d="M298.6852,77.6035 C290.5572,77.6035 285.9902,74.1635 285.9902,61.3965 C285.9902,48.5225 290.7952,44.5095 301.5182,44.5095 C306.4442,44.5095 312.3652,45.4355 315.8072,46.7335 L315.8072,74.4015 C315.8072,87.0395 308.3572,89.5055 298.3742,89.5055 C294.3082,89.5055 289.7472,88.7035 286.8572,87.6585 L288.5172,80.2505 C291.7812,81.1185 294.9242,81.6815 298.1912,81.6815 C303.3072,81.6815 306.3292,80.3805 306.3292,75.8235 C304.4762,76.7485 301.7682,77.6035 298.6852,77.6035 L298.6852,77.6035 Z M306.3292,52.8955 C304.8522,52.2765 302.9392,52.0355 301.5182,52.0355 C297.0202,52.0355 295.5412,53.1505 295.5412,61.2175 C295.5412,67.8715 296.8372,69.6585 301.2752,69.6585 C304.0392,69.6585 306.3292,68.8035 306.3292,67.4425 L306.3292,52.8955 Z" id="Fill-14" fill="#A0BF38"></path>
                    <path d="M334.0465,36.1938 C334.0465,40.4578 332.6875,41.1928 328.6845,41.1928 C324.6175,41.1928 323.3265,40.4578 323.3265,36.1938 C323.3265,32.3158 324.6175,31.6938 328.6845,31.6938 C332.6875,31.6938 334.0465,32.3158 334.0465,36.1938 L334.0465,36.1938 Z M323.9385,76.9358 L333.4295,76.9358 L333.4295,45.3738 L323.9385,45.3738 L323.9385,76.9358 Z" id="Fill-16" fill="#A0BF38"></path>
                    <path d="M340.2008,60.9643 C340.2008,48.0893 345.4398,44.5093 355.4778,44.5093 C365.7138,44.5093 370.8878,48.0893 370.8878,60.9643 C370.8878,73.9123 365.7738,77.7973 355.4778,77.7973 C345.3198,77.7973 340.2008,73.9123 340.2008,60.9643 M349.7548,61.1593 C349.7548,69.0993 351.0458,70.4073 355.4778,70.4073 C359.9798,70.4073 361.2758,69.0993 361.2758,61.1593 C361.2758,52.8943 359.9798,51.9063 355.4778,51.9063 C351.0458,51.9063 349.7548,52.8943 349.7548,61.1593" id="Fill-18" fill="#A0BF38"></path>
                    <path d="M387.2682,76.936 L377.7822,76.936 L377.7822,47.352 C381.8532,45.873 388.1332,44.515 393.8042,44.515 C402.4962,44.515 406.8122,48.149 406.8122,59.491 L406.8122,76.936 L397.3142,76.936 L397.3142,60.228 C397.3142,54.502 396.3862,52.96 391.7682,52.96 C390.2292,52.96 388.8102,53.15 387.2682,53.507 L387.2682,76.936 Z" id="Fill-20" fill="#A0BF38"></path>
                    <polygon id="Fill-22" fill="#FFFFFF" points="222.8395 161.893 209.6985 161.893 209.6985 105.397 222.8395 105.397 222.8395 125.986 244.2285 125.986 244.2285 105.397 257.3655 105.397 257.3655 161.893 244.2285 161.893 244.2285 138.055 222.8395 138.055"></polygon>
                    <path d="M305.5348,159.7842 C299.9058,161.8122 291.8238,163.0222 285.6998,163.0222 C271.9048,163.0222 267.8258,160.1092 267.8258,149.2502 C267.8258,137.5762 274.1858,135.7142 284.1488,135.7142 C287.2448,135.7142 290.4388,136.1142 293.6158,136.7672 C293.6158,131.0122 292.3098,129.3932 284.1488,129.3932 C279.3318,129.3932 274.6798,130.2822 271.1698,131.3352 L269.2118,121.4422 C274.0288,120.2372 280.9618,119.2542 287.1728,119.2542 C299.6598,119.2542 305.5348,123.0652 305.5348,135.3802 L305.5348,159.7842 Z M286.6788,153.7842 C289.0468,153.7842 291.6628,153.3762 293.6158,152.6562 L293.6158,144.7842 C291.7438,144.3072 289.3738,144.2202 286.8428,144.2202 C282.3478,144.2202 280.7188,144.7122 280.7188,148.8362 C280.7188,153.0562 281.7838,153.7842 286.6788,153.7842 L286.6788,153.7842 Z" id="Fill-24" fill="#FFFFFF"></path>
                    <path d="M341.4557,120.3955 L353.8637,120.3955 L353.8637,159.3755 C348.5547,161.2405 340.1447,163.1025 332.7277,163.1025 C321.1337,163.1025 315.5737,158.2365 315.5737,143.4105 L315.5737,120.3955 L327.9947,120.3955 L327.9947,142.4435 C327.9947,149.8875 329.3057,152.0045 335.4187,152.0045 C337.4587,152.0045 339.2587,151.6775 341.4557,151.1885 L341.4557,120.3955 Z" id="Fill-26" fill="#FFFFFF"></path>
                    <path d="M379.2516,131.0884 L379.2516,146.5704 C379.2516,150.7884 380.4846,152.4844 384.8866,152.4844 C387.5026,152.4844 389.6246,152.0054 391.5756,151.3524 L393.6186,160.9184 C390.5166,162.2164 385.5366,163.0234 381.0516,163.0234 C371.8296,163.0234 366.6796,160.2724 366.6796,147.8734 L366.6796,131.0884 L359.9106,131.0884 L359.9106,120.3954 L366.6796,120.3954 L366.6796,114.2354 L379.2516,109.2154 L379.2516,120.3954 L392.3146,120.3954 L392.3146,131.0884 L379.2516,131.0884 Z" id="Fill-28" fill="#FFFFFF"></path>
                    <path d="M427.5045,130.769 C424.2345,129.882 419.4145,128.984 415.1755,128.984 C411.2535,128.984 409.3005,129.309 409.3005,132.552 C409.3005,134.741 410.4395,135.303 416.8855,136.114 C426.6035,137.338 430.9295,140.248 430.9295,148.754 C430.9295,160.025 422.7715,163.02 412.2335,163.02 C407.7415,163.02 401.2135,162.133 397.3735,160.752 L399.8235,151.346 C402.9285,152.242 407.5775,153.056 411.6605,153.056 C416.5605,153.056 418.8445,152.656 418.8445,149.404 C418.8445,147.135 417.4615,146.241 410.5215,145.591 C401.7915,144.789 397.1355,142.284 397.1355,133.443 C397.1355,122.179 405.2125,119.254 415.6615,119.254 C420.1545,119.254 426.0345,120.153 429.9515,121.536 L427.5045,130.769 Z" id="Fill-30" fill="#FFFFFF"></path>
                    <mask id="mask-2" fill="white">
                        <use xlink:href="#path-1"></use>
                    </mask>
                    <g id="Clip-33"></g>
                    <polygon id="Fill-32" fill="#FFFFFF" mask="url(#mask-2)" points="435.832 144.787 457.298 144.787 457.298 132.885 435.832 132.885"></polygon>
                    <path d="M502.7711,160.1103 C498.1941,161.8133 490.3631,163.0233 483.8221,163.0233 C469.6261,163.0233 463.2671,158.0023 463.2671,140.9813 C463.2671,124.2903 470.6091,119.2553 480.9771,119.2553 C485.0581,119.2553 487.8331,120.0653 490.1991,121.0473 L490.1991,103.3713 L502.7711,103.3713 L502.7711,160.1103 Z M490.1991,132.5523 C490.1991,130.7703 487.3441,129.3943 483.6671,129.3943 C477.7881,129.3943 475.9121,131.9793 475.9121,140.8153 C475.9121,150.8673 477.8791,152.5683 483.8221,152.5683 C485.9541,152.5683 488.6471,152.2433 490.1991,151.5973 L490.1991,132.5523 Z" id="Fill-34" fill="#FFFFFF" mask="url(#mask-2)"></path>
                    <path d="M547.5074,160.7519 C543.3474,162.1349 537.1424,163.0239 532.4074,163.0239 C520.6504,163.0239 511.9204,157.9169 511.9204,140.8929 C511.9204,124.1949 519.5884,119.2539 531.5914,119.2539 C545.4694,119.2539 551.5114,123.4769 550.3614,144.7859 L524.8134,144.7859 C524.9744,151.4269 527.9974,152.6559 534.0434,152.6559 C537.0574,152.6559 542.5304,152.0849 545.6304,151.2639 L547.5074,160.7519 Z M524.9004,135.6299 L539.4184,135.6299 C539.2664,129.8819 537.3854,128.6679 532.4854,128.6679 C527.2584,128.6679 525.6344,130.3659 524.9004,135.6299 L524.9004,135.6299 Z" id="Fill-35" fill="#FFFFFF" mask="url(#mask-2)"></path>
                    <polygon id="Fill-36" fill="#FFFFFF" mask="url(#mask-2)" points="555.758 144.787 577.224 144.787 577.224 132.885 555.758 132.885"></polygon>
                    <polygon id="Fill-37" fill="#FFFFFF" mask="url(#mask-2)" points="627.5914 105.397 627.5914 116.827 599.2734 116.827 599.2734 129.963 620.2414 129.963 620.2414 141.143 599.2734 141.143 599.2734 161.893 586.1274 161.893 586.1274 105.397"></polygon>
                    <path d="M632.9879,120.3955 L645.5569,120.3955 L645.5569,123.6375 C646.9399,121.1975 649.6339,119.2635 655.6839,119.2635 C656.9059,119.2635 658.3799,119.3355 659.8399,119.4975 L659.8399,131.0885 C658.2089,130.6085 656.0049,130.4505 653.9679,130.4505 C649.4759,130.4505 645.5569,131.9075 645.5569,134.6565 L645.5569,161.8935 L632.9879,161.8935 L632.9879,120.3955 Z" id="Fill-38" fill="#FFFFFF" mask="url(#mask-2)"></path>
                    <path d="M701.4772,159.7842 C695.8402,161.8122 687.7632,163.0222 681.6442,163.0222 C667.8412,163.0222 663.7652,160.1092 663.7652,149.2502 C663.7652,137.5762 670.1292,135.7142 680.0902,135.7142 C683.1882,135.7142 686.3742,136.1142 689.5552,136.7672 C689.5552,131.0122 688.2542,129.3932 680.0902,129.3932 C675.2752,129.3932 670.6222,130.2822 667.1042,131.3352 L665.1512,121.4422 C669.9682,120.2372 676.9092,119.2542 683.1112,119.2542 C695.6042,119.2542 701.4772,123.0652 701.4772,135.3802 L701.4772,159.7842 Z M682.6202,153.7842 C684.9862,153.7842 687.6062,153.3762 689.5552,152.6562 L689.5552,144.7842 C687.6832,144.3072 685.3182,144.2202 682.7822,144.2202 C678.2982,144.2202 676.6562,144.7122 676.6562,148.8362 C676.6562,153.0562 677.7222,153.7842 682.6202,153.7842 L682.6202,153.7842 Z" id="Fill-39" fill="#FFFFFF" mask="url(#mask-2)"></path>
                    <path d="M724.4176,161.893 L711.8506,161.893 L711.8506,122.984 C717.2386,121.048 725.5656,119.255 733.0676,119.255 C744.5896,119.255 750.2916,124.042 750.2916,138.946 L750.2916,161.893 L737.7246,161.893 L737.7246,139.924 C737.7246,132.384 736.4976,130.365 730.3766,130.365 C728.3416,130.365 726.4556,130.608 724.4176,131.088 L724.4176,161.893 Z" id="Fill-40" fill="#FFFFFF" mask="url(#mask-2)"></path>
                    <path d="M792.9108,160.9175 C789.5668,162.2975 783.9308,163.0205 779.7668,163.0205 C767.2828,163.0205 758.9448,157.9165 758.9448,140.8925 C758.9448,124.0425 767.3588,119.2555 779.7668,119.2555 C784.0918,119.2555 789.6508,119.9005 792.9108,121.0475 L790.2948,131.5725 C787.9318,130.6885 784.2608,129.8815 780.8298,129.8815 C774.7118,129.8815 771.6058,130.9315 771.6058,141.1375 C771.6058,150.8675 774.7118,152.3275 780.8298,152.3275 C784.4198,152.3275 787.9318,151.4285 790.2948,150.4605 L792.9108,160.9175 Z" id="Fill-41" fill="#FFFFFF" mask="url(#mask-2)"></path>
                    <path d="M833.0729,160.7519 C828.9099,162.1349 822.7029,163.0239 817.9669,163.0239 C806.2159,163.0239 797.4879,157.9169 797.4879,140.8929 C797.4879,124.1949 805.1579,119.2539 817.1599,119.2539 C831.0319,119.2539 837.0739,123.4769 835.9309,144.7859 L810.3809,144.7859 C810.5429,151.4269 813.5649,152.6559 819.5989,152.6559 C822.6279,152.6559 828.0949,152.0849 831.1939,151.2639 L833.0729,160.7519 Z M810.4659,135.6299 L824.9929,135.6299 C824.8299,129.8819 822.9479,128.6679 818.0539,128.6679 C812.8309,128.6679 811.1969,130.3659 810.4659,135.6299 L810.4659,135.6299 Z" id="Fill-42" fill="#FFFFFF" mask="url(#mask-2)"></path>
                </g>
            </g>
        </g>
    </g>
</svg>