<?xml version="1.0" encoding="UTF-8"?>
<svg width="486px" height="327px" viewBox="0 0 486 327" version="1.1" xmlns="http://www.w3.org/2000/svg" xmlns:xlink="http://www.w3.org/1999/xlink">
    <title>Group 54</title>
    <defs>
        <polygon id="path-1" points="0 326.499 485.935 326.499 485.935 0 0 0"></polygon>
    </defs>
    <g id="Accueil" stroke="none" stroke-width="1" fill="none" fill-rule="evenodd">
        <g id="Desktop-HD" transform="translate(-477.000000, -349.000000)">
            <g id="Group-54" transform="translate(477.000000, 349.000000)">
                <polygon id="Fill-1" fill="#FFFFFF" points="26.204 48.238 102.663 48.238 102.663 0.017 26.204 0.017"></polygon>
                <g id="Group-53">
                    <path d="M7.4988,78.6739 L7.4988,87.7599 L12.4318,87.7599 C15.5468,87.7599 17.4158,86.0989 17.4158,83.1389 C17.4158,80.3869 15.5468,78.6739 12.4318,78.6739 L7.4988,78.6739 Z M0.1258,72.3909 L12.1198,72.3909 C20.1158,72.3909 24.9978,76.4929 24.9978,83.2429 C24.9978,89.9409 20.1158,94.0429 12.1198,94.0429 L7.4988,94.0429 L7.4988,108.7369 L0.1258,108.7369 L0.1258,72.3909 Z" id="Fill-2" fill="#000000"></path>
                    <path d="M38.4456,78.6739 L38.4456,87.7599 L42.5996,87.7599 C45.7156,87.7599 47.5326,86.0989 47.5326,83.1389 C47.5326,80.3869 45.7156,78.6739 42.5996,78.6739 L38.4456,78.6739 Z M31.0726,72.3909 L42.1846,72.3909 C50.1806,72.3909 55.1126,76.4929 55.1126,83.2429 C55.1126,87.6049 52.9846,90.8759 49.2986,92.6409 L60.7206,108.7369 L51.8946,108.7369 L42.2366,94.0429 L38.4456,94.0429 L38.4456,108.7369 L31.0726,108.7369 L31.0726,72.3909 Z" id="Fill-4" fill="#000000"></path>
                    <path d="M72.4564,69.2755 L78.3244,62.2665 L85.9044,62.2665 L79.1544,69.2755 L72.4564,69.2755 Z M65.2904,72.3915 L86.4764,72.3915 L86.4764,78.6735 L72.6644,78.6735 L72.6644,87.0855 L84.3984,87.0855 L84.3984,93.3685 L72.6644,93.3685 L72.6644,102.4545 L86.4764,102.4545 L86.4764,108.7375 L65.2904,108.7375 L65.2904,72.3915 Z" id="Fill-6" fill="#000000"></path>
                    <polygon id="Fill-8" fill="#000000" points="95.0443 72.3912 116.2293 72.3912 116.2293 78.6742 102.4173 78.6742 102.4173 87.0852 114.1523 87.0852 114.1523 93.3682 102.4173 93.3682 102.4173 108.7372 95.0443 108.7372"></polygon>
                    <polygon id="Fill-10" fill="#000000" points="122.7205 72.3912 143.9055 72.3912 143.9055 78.6742 130.0935 78.6742 130.0935 87.0852 141.8285 87.0852 141.8285 93.3682 130.0935 93.3682 130.0935 102.4542 143.9055 102.4542 143.9055 108.7372 122.7205 108.7372"></polygon>
                    <polygon id="Fill-12" fill="#000000" points="149.514 72.3912 179.318 72.3912 179.318 79.0892 168.102 79.0892 168.102 108.7372 160.729 108.7372 160.729 79.0892 149.514 79.0892"></polygon>
                    <path d="M7.4988,131.4991 L7.4988,154.4491 L14.5088,154.4491 C21.2588,154.4491 26.1398,149.4131 26.1398,142.9741 C26.1398,136.4841 21.2588,131.4991 14.5088,131.4991 L7.4988,131.4991 Z M0.1258,124.8011 L14.4048,124.8011 C25.9318,124.8011 33.7198,133.1611 33.7198,142.9741 C33.7198,152.7881 25.9318,161.1471 14.4048,161.1471 L0.1258,161.1471 L0.1258,124.8011 Z" id="Fill-14" fill="#000000"></path>
                    <polygon id="Fill-16" fill="#000000" points="40.8348 124.8008 62.0198 124.8008 62.0198 131.0838 48.2078 131.0838 48.2078 139.4948 59.9428 139.4948 59.9428 145.7788 48.2078 145.7788 48.2078 154.8638 62.0198 154.8638 62.0198 161.1478 40.8348 161.1478"></polygon>
                    <polygon id="Fill-18" fill="#000000" points="84.0877 124.8008 91.4617 124.8008 91.4617 154.4488 105.2727 154.4488 105.2727 161.1478 84.0877 161.1478"></polygon>
                    <path d="M132.326,145.4146 L127.341,131.7586 L122.357,145.4146 L132.326,145.4146 Z M122.513,124.8006 L132.17,124.8006 L145.93,161.1476 L138.09,161.1476 L134.611,151.6976 L120.072,151.6976 L116.593,161.1476 L108.753,161.1476 L122.513,124.8006 Z" id="Fill-20" fill="#000000"></path>
                    <path d="M172.4114,131.0841 L172.4114,140.1701 L176.5654,140.1701 C179.6814,140.1701 181.4984,138.5091 181.4984,135.5491 C181.4984,132.7971 179.6814,131.0841 176.5654,131.0841 L172.4114,131.0841 Z M165.0384,124.8011 L176.1504,124.8011 C184.1464,124.8011 189.0784,128.9031 189.0784,135.6531 C189.0784,140.0151 186.9504,143.2861 183.2634,145.0511 L194.6864,161.1471 L185.8594,161.1471 L176.2024,146.4531 L172.4114,146.4531 L172.4114,161.1471 L165.0384,161.1471 L165.0384,124.8011 Z" id="Fill-22" fill="#000000"></path>
                    <path d="M206.4227,121.6856 L212.2897,114.6756 L219.8707,114.6756 L213.1207,121.6856 L206.4227,121.6856 Z M199.2567,124.8006 L220.4417,124.8006 L220.4417,131.0836 L206.6307,131.0836 L206.6307,139.4956 L218.3647,139.4956 L218.3647,145.7786 L206.6307,145.7786 L206.6307,154.8646 L220.4417,154.8646 L220.4417,161.1476 L199.2567,161.1476 L199.2567,124.8006 Z" id="Fill-24" fill="#000000"></path>
                    <path d="M253.3626,152.1129 L253.3626,145.9859 L244.1206,145.9859 L244.1206,139.2879 L260.7356,139.2879 L260.7356,154.7609 C257.3616,159.2789 251.7006,162.1859 244.8996,162.1859 C233.1126,162.1859 225.0646,153.3589 225.0646,142.9739 C225.0646,132.5899 232.9046,123.7619 244.3796,123.7619 C250.9736,123.7619 256.3746,126.7219 259.6976,131.1359 L253.8826,135.6529 C251.8046,132.6939 248.5336,130.6679 244.3796,130.6679 C237.5266,130.6679 232.6456,136.0169 232.6456,142.9739 C232.6456,149.9319 237.7856,155.2799 244.8996,155.2799 C248.3266,155.2799 251.2856,154.0859 253.3626,152.1129" id="Fill-26" fill="#000000"></path>
                    <mask id="mask-2" fill="white">
                        <use xlink:href="#path-1"></use>
                    </mask>
                    <g id="Clip-29"></g>
                    <polygon id="Fill-28" fill="#000000" mask="url(#mask-2)" points="268.942 161.148 276.315 161.148 276.315 124.801 268.942 124.801"></polygon>
                    <path d="M314.3743,142.9742 C314.3743,136.0162 309.4943,130.6682 302.6913,130.6682 C295.8373,130.6682 290.9573,136.0162 290.9573,142.9742 C290.9573,149.9322 295.8373,155.2802 302.6913,155.2802 C309.4943,155.2802 314.3743,149.9322 314.3743,142.9742 M321.9553,142.9742 C321.9553,153.3592 314.1153,162.1862 302.6913,162.1862 C291.2163,162.1862 283.3763,153.3592 283.3763,142.9742 C283.3763,132.5892 291.2163,123.7622 302.6913,123.7622 C314.1153,123.7622 321.9553,132.5892 321.9553,142.9742" id="Fill-30" fill="#000000" mask="url(#mask-2)"></path>
                    <polygon id="Fill-31" fill="#000000" mask="url(#mask-2)" points="329.0184 124.8008 338.4684 124.8008 354.7204 150.8148 354.7204 124.8008 362.0934 124.8008 362.0934 161.1478 352.6434 161.1478 336.3914 135.0298 336.3914 161.1478 329.0184 161.1478"></polygon>
                    <polygon id="Fill-32" fill="#000000" mask="url(#mask-2)" points="0.1258 177.211 7.4988 177.211 7.4988 191.698 25.8278 191.698 25.8278 177.211 33.2008 177.211 33.2008 213.558 25.8278 213.558 25.8278 198.396 7.4988 198.396 7.4988 213.558 0.1258 213.558"></polygon>
                    <path d="M62.3831,197.8253 L57.3981,184.1693 L52.4141,197.8253 L62.3831,197.8253 Z M52.5701,177.2113 L62.2271,177.2113 L75.9871,213.5573 L68.1461,213.5573 L64.6681,204.1073 L50.1291,204.1073 L46.6501,213.5573 L38.8101,213.5573 L52.5701,177.2113 Z" id="Fill-33" fill="#000000" mask="url(#mask-2)"></path>
                    <path d="M101.5867,177.211 L108.9597,177.211 L108.9597,199.331 C108.9597,208.885 103.3517,214.596 94.2137,214.596 C85.1277,214.596 79.5197,208.885 79.5197,199.331 L79.5197,177.211 L86.8927,177.211 L86.8927,199.954 C86.8927,204.835 89.6447,207.69 94.2657,207.69 C98.7827,207.69 101.5867,204.835 101.5867,199.954 L101.5867,177.211 Z" id="Fill-34" fill="#000000" mask="url(#mask-2)"></path>
                    <polygon id="Fill-35" fill="#000000" mask="url(#mask-2)" points="114.7757 177.211 144.5797 177.211 144.5797 183.909 133.3647 183.909 133.3647 213.558 125.9917 213.558 125.9917 183.909 114.7757 183.909"></polygon>
                    <path d="M152.3694,203.5884 C154.5504,206.3924 157.4574,208.0534 160.4174,208.0534 C163.3254,208.0534 165.0904,206.4964 165.0904,203.8484 C165.0904,197.3574 148.4754,198.8114 148.4754,186.7134 C148.4754,180.9494 153.2004,176.1724 160.1064,176.1724 C165.5574,176.1724 169.7634,178.6134 172.8274,182.2994 L167.4274,187.1284 C165.2984,184.3764 162.9104,182.6114 160.1584,182.6114 C157.6144,182.6114 155.9524,184.2734 155.9524,186.4014 C155.9524,192.8914 172.5674,191.3864 172.5674,203.6924 C172.4634,210.4424 167.1674,214.5964 160.5214,214.5964 C154.3944,214.5964 150.2404,212.3634 147.0214,208.5214 L152.3694,203.5884 Z" id="Fill-36" fill="#000000" mask="url(#mask-2)"></path>
                    <polygon id="Fill-37" fill="#000000" mask="url(#mask-2)" points="175.995 203.485 190.015 203.485 190.015 197.098 175.995 197.098"></polygon>
                    <path d="M203.2562,183.9092 L203.2562,206.8602 L210.2662,206.8602 C217.0152,206.8602 221.8972,201.8232 221.8972,195.3852 C221.8972,188.8932 217.0152,183.9092 210.2662,183.9092 L203.2562,183.9092 Z M195.8822,177.2112 L210.1622,177.2112 C221.6892,177.2112 229.4772,185.5712 229.4772,195.3852 C229.4772,205.1982 221.6892,213.5572 210.1622,213.5572 L195.8822,213.5572 L195.8822,177.2112 Z" id="Fill-38" fill="#000000" mask="url(#mask-2)"></path>
                    <polygon id="Fill-39" fill="#000000" mask="url(#mask-2)" points="236.5921 177.211 257.7771 177.211 257.7771 183.494 243.9651 183.494 243.9651 191.905 255.7001 191.905 255.7001 198.188 243.9651 198.188 243.9651 207.274 257.7771 207.274 257.7771 213.558 236.5921 213.558"></polygon>
                    <polygon id="Fill-40" fill="#000000" mask="url(#mask-2)" points="262.035 203.485 276.055 203.485 276.055 197.098 262.035 197.098"></polygon>
                    <polygon id="Fill-41" fill="#000000" mask="url(#mask-2)" points="281.9227 177.211 303.1077 177.211 303.1077 183.494 289.2957 183.494 289.2957 191.905 301.0307 191.905 301.0307 198.188 289.2957 198.188 289.2957 213.558 281.9227 213.558"></polygon>
                    <path d="M316.972,183.4942 L316.972,192.5802 L321.126,192.5802 C324.241,192.5802 326.058,190.9192 326.058,187.9592 C326.058,185.2072 324.241,183.4942 321.126,183.4942 L316.972,183.4942 Z M309.598,177.2112 L320.711,177.2112 C328.707,177.2112 333.639,181.3132 333.639,188.0632 C333.639,192.4252 331.511,195.6962 327.824,197.4612 L339.247,213.5572 L330.42,213.5572 L320.762,198.8642 L316.972,198.8642 L316.972,213.5572 L309.598,213.5572 L309.598,177.2112 Z" id="Fill-42" fill="#000000" mask="url(#mask-2)"></path>
                    <path d="M364.3792,197.8253 L359.3942,184.1693 L354.4092,197.8253 L364.3792,197.8253 Z M354.5662,177.2113 L364.2232,177.2113 L377.9832,213.5573 L370.1422,213.5573 L366.6642,204.1073 L352.1252,204.1073 L348.6472,213.5573 L340.8052,213.5573 L354.5662,177.2113 Z" id="Fill-43" fill="#000000" mask="url(#mask-2)"></path>
                    <polygon id="Fill-44" fill="#000000" mask="url(#mask-2)" points="383.5916 177.211 393.0416 177.211 409.2936 203.225 409.2936 177.211 416.6666 177.211 416.6666 213.558 407.2166 213.558 390.9646 187.44 390.9646 213.558 383.5916 213.558"></polygon>
                    <path d="M452.5472,202.7056 L458.3622,207.1706 C455.0402,211.6886 449.6392,214.5966 443.0452,214.5966 C431.5702,214.5966 423.7302,205.7696 423.7302,195.3846 C423.7302,184.9996 431.5702,176.1726 443.0452,176.1726 C449.6392,176.1726 455.0402,179.1326 458.3622,183.5456 L452.5472,188.0626 C450.4702,185.1036 447.1992,183.0786 443.0452,183.0786 C436.1912,183.0786 431.3112,188.4266 431.3112,195.3846 C431.3112,202.3426 436.1912,207.6906 443.0452,207.6906 C447.1992,207.6906 450.4702,205.6646 452.5472,202.7056" id="Fill-45" fill="#000000" mask="url(#mask-2)"></path>
                    <polygon id="Fill-46" fill="#000000" mask="url(#mask-2)" points="464.7498 177.211 485.9348 177.211 485.9348 183.494 472.1238 183.494 472.1238 191.905 483.8578 191.905 483.8578 198.188 472.1238 198.188 472.1238 207.274 485.9348 207.274 485.9348 213.558 464.7498 213.558"></polygon>
                    <path d="M10.6043,325.9659 L10.8713,325.1399 C7.3263,324.4739 6.8733,324.4739 8.2863,320.6099 L9.7253,316.6389 L13.6423,316.6389 C15.4013,316.6389 15.4273,317.3589 15.1613,319.2769 L16.1733,319.2769 L18.5193,312.8549 L17.5063,312.8549 C16.6263,314.3739 15.9343,315.4929 14.0153,315.4929 L10.1513,315.4929 L12.2033,309.8699 C12.8423,308.0849 13.2153,307.7119 15.6143,307.7119 L17.3193,307.7119 C19.7983,307.7119 20.0913,308.3779 20.0913,310.8829 L21.0773,310.8829 L21.9033,306.5119 L7.1933,306.5119 L6.9263,307.3389 C9.7783,307.9249 10.0443,308.1909 8.7123,311.8689 L5.5143,320.6099 C4.1823,324.2609 3.6223,324.5539 0.3443,325.1399 L0.1043,325.9659 L10.6043,325.9659 Z M31.0173,315.2529 C31.5233,313.5209 31.2563266,312.0019 29.9243,312.0019 C28.3523,312.0019 27.9523,313.2009 26.3533,316.6389 L26.3533,314.6669 C26.3533,313.2549 25.9003,312.0019 24.6213,312.0019 C23.1283,312.0019 21.7703,314.3199 20.7303,316.6119 L21.4233,316.6119 C22.1433,315.5729 22.8093,314.9599 23.3423,314.9599 C23.9813,314.9599 24.3283,315.9459 23.3423,318.1319 L20.4643,324.5279 C19.9313,325.7269 20.4903,326.4989 21.6633,326.4989 C22.3823,326.4989 22.7023,326.3129 22.9953,325.5399 L25.8203,318.0509 C26.6203,317.0649 27.3393,316.2129 28.2453,315.2529 L31.0173,315.2529 Z M43.9683,311.3889 L42.8493,311.3089 L41.5963,312.5349 L41.3303,312.5349 C35.2533,312.5349 30.0043,319.3569 30.0043,324.3139 C30.0043,325.6989 30.8563,326.4989 32.1893,326.4989 C33.7613,326.4989 35.3073,324.2609 37.0393,321.8619 L36.9593,322.7149 C36.7463,325.1659 37.4923,326.4989 38.7713,326.4989 C40.2643,326.4989 41.6233,324.1809 42.6623,321.8889 L41.9693,321.8889 C41.2503,322.9279 40.5833,323.5409 40.0503,323.5409 C39.4913,323.5409 39.0913,322.5279 40.0503,320.3699 L43.9683,311.3889 Z M32.7493,322.3419 C32.7493,319.0639 36.3993,314.6129 38.4523,314.6129 C38.9043,314.6129 39.3313,314.6669 39.7043,314.7739 L37.5723,320.4499 C36.3463,321.9419 34.4543,323.7539 33.5753,323.7539 C33.0683,323.7539 32.7493,323.3279 32.7493,322.3419 L32.7493,322.3419 Z M46.2063,314.0539 L48.6583,314.0539 L44.7673,324.6869 C44.4203,325.5929 44.9003,326.4989 45.8333,326.4989 C48.0453,326.4989 51.6163,324.3139 52.8683,321.3289 L52.1753,321.3289 C51.1893,322.3679 49.2973,323.7539 47.6723,324.0469 L51.2433,314.0539 L54.8943,314.0539 L55.3473,312.5349 L51.8023,312.5349 L53.1613,308.6969 L51.7493,308.6969 L49.2173,312.5349 L46.2063,312.9619 L46.2063,314.0539 Z M63.6083,321.3559 L62.7023,321.3559 C61.5563,322.7149 60.3303,323.7799 59.1043,323.7799 C57.8523,323.7799 57.2123,323.0339 57.2123,321.3559 C57.2123,320.6629 57.2923,319.9699 57.4253,319.3309 L64.8073,316.9049 C66.2463,313.4939 64.5143,312.0019 62.4883,312.0019 C58.9983,312.0019 55.0273,317.8379 55.0273,322.9549 C55.0273,325.2459 56.1203,326.4989 57.8253,326.4989 C59.8243,326.4989 61.9023,324.5539 63.6083,321.3559 L63.6083,321.3559 Z M61.0763,313.9739 C62.0623,313.9739 62.9153,314.7199 62.4623,316.6119 L57.8783,317.6779 C58.6783,315.5469 60.0103,313.9739 61.0763,313.9739 L61.0763,313.9739 Z M77.4383,315.2529 C77.9453,313.5209 77.6783,312.0019 76.3463,312.0019 C74.7743,312.0019 74.3743,313.2009 72.7753,316.6389 L72.7753,314.6669 C72.7753,313.2549 72.3223,312.0019 71.0433,312.0019 C69.5503,312.0019 68.1913,314.3199 67.1523,316.6119 L67.8453,316.6119 C68.5643,315.5729 69.2303,314.9599 69.7643,314.9599 C70.4033,314.9599 70.7503,315.9459 69.7643,318.1319 L66.8863,324.5279 C66.3533,325.7269 66.9123,326.4989 68.0853,326.4989 C68.8043,326.4989 69.1243,326.3129 69.4173,325.5399 L72.2423,318.0509 C73.0423,317.0649 73.7613,316.2129 74.6673,315.2529 L77.4383,315.2529 Z M77.4923,324.5279 C76.9583,325.7269 77.5183,326.4989 78.6913,326.4989 C79.4103,326.4989 79.7303,326.3129 80.0233,325.5399 L82.8483,318.0509 C84.1543,316.4519 86.8453,314.7469 87.9113,314.7469 C88.6843,314.7469 88.5783,315.3859 88.0713,316.3459 L83.7283,324.6869 C83.3013,325.5129 83.8613,326.4989 84.7933,326.4989 C86.9253,326.4989 89.4573,324.5799 90.4703,321.8889 L89.7773,321.8889 C89.0843,322.8749 87.9113,323.9669 86.8193,324.1539 L90.5503,316.6119 C91.0293,315.6529 91.2693,314.7469 91.2693,314.0279 C91.2693,312.8009 90.5763,312.0019 89.2973,312.0019 C87.4583,312.0019 85.5933,314.0809 83.3813,316.6389 L83.3813,314.6669 C83.3813,313.2549 82.9283,312.0019 81.6493,312.0019 C80.8493,312.0019 80.0773,312.6949 79.3573,313.6809 L79.3573,313.9469 C80.7433,313.8669 81.3553,315.9459 80.3703,318.1319 L77.4923,324.5279 Z M100.9693,308.2179 C101.9283,308.2179 102.7283,307.4449 102.7283,306.4589 C102.7283,305.4999 101.9283,304.6999 100.9693,304.6999 C99.9833,304.6999 99.2103,305.4999 99.2103,306.4589 C99.2103,307.4449 99.9833,308.2179 100.9693,308.2179 L100.9693,308.2179 Z M100.2233,313.5479 C100.5163,312.5619 99.8503,312.0019 99.3433,312.0019 C97.2113,312.0019 94.6803,313.9209 93.6673,316.6119 L94.3603,316.6119 C95.0533,315.6259 96.2263,314.5339 97.3183,314.3469 L93.2413,324.9529 C92.8683,325.9399 93.6143,326.4989 94.1203,326.4989 C96.1463,326.4989 98.5173,324.5539 99.5303,321.8889 L98.8373,321.8889 C98.1443,322.8749 96.9723,323.9669 95.8793,324.1539 L100.2233,313.5479 Z M103.5273,314.0539 L105.9793,314.0539 L102.0883,324.6869 C101.7423,325.5929 102.2213,326.4989 103.1543,326.4989 C105.3663,326.4989 108.9373,324.3139 110.1893,321.3289 L109.4973,321.3289 C108.5103,322.3679 106.6183,323.7539 104.9933,324.0469 L108.5633,314.0539 L112.2143,314.0539 L112.6673,312.5349 L109.1233,312.5349 L110.4823,308.6969 L109.0703,308.6969 L106.5383,312.5349 L103.5273,312.9619 L103.5273,314.0539 Z M119.4633,310.6429 L124.6593,305.7929 L124.6593,305.2329 L121.8613,305.2329 L118.6633,310.6429 L119.4633,310.6429 Z M120.9283,321.3559 L120.0223,321.3559 C118.8763,322.7149 117.6503,323.7799 116.4253,323.7799 C115.1723,323.7799 114.5333,323.0339 114.5333,321.3559 C114.5333,320.6629 114.6133,319.9699 114.7463,319.3309 L122.1273,316.9049 C123.5673,313.4939 121.8343,312.0019 119.8093,312.0019 C116.3183,312.0019 112.3483,317.8379 112.3483,322.9549 C112.3483,325.2459 113.4403,326.4989 115.1463,326.4989 C117.1453,326.4989 119.2233,324.5539 120.9283,321.3559 L120.9283,321.3559 Z M118.3973,313.9739 C119.3833,313.9739 120.2353,314.7199 119.7833,316.6119 L115.1993,317.6779 C115.9993,315.5469 117.3313,313.9739 118.3973,313.9739 L118.3973,313.9739 Z" id="Fill-47" fill="#000000" mask="url(#mask-2)"></path>
                    <path d="M15.8807,271.8951 L21.0777,268.3241 L21.0777,267.7651 L17.9327,267.7651 L15.0547,271.8951 L15.8807,271.8951 Z M13.7487,283.0611 C15.5077,283.0611 15.5347,283.7811 15.2677,285.6991 L16.2807,285.6991 L18.6257,279.2771 L17.6127,279.2771 C16.7337,280.7961 16.0407,281.9151 14.1217,281.9151 L10.2577,281.9151 L12.2027,276.5591 C12.8427,274.7731 13.2157,274.4271 15.6137,274.4271 L17.3197,274.4271 C19.7977,274.4271 20.0907,275.0931 20.0907,277.5711 L21.0777,277.5711 L21.9027,273.2011 L7.1927,273.2011 L6.9267,274.0271 C9.7777,274.6131 10.0447,274.8801 8.7127,278.5571 L5.5147,287.2981 C4.1817,290.9491 3.6227,291.2421 0.3447,291.8291 L0.1047,292.6551 L16.4667,292.6551 L19.3987,288.0181 L18.2787,288.0181 C16.4137,289.7761 14.0687,291.4561 10.7907,291.4561 C6.4467,291.4561 6.8467,291.2691 8.2857,287.2981 L9.8317,283.0611 L13.7487,283.0611 Z M32.3767,294.4671 C32.3767,292.7611 30.8577,292.1481 28.3797,291.4021 C26.2477,290.7631 25.2877,290.5761 25.2877,289.8831 C25.2877,289.3241 25.7407,288.6571 26.6467,288.1781 C30.1377,287.9911 32.4027,284.8471 32.4027,282.2081 C32.4027,281.6481 32.2967,281.1691 32.1097,280.7431 L35.0677,280.7431 L35.5207,279.2241 L30.8307,279.2241 C30.2717,278.8771 29.6047,278.6901 28.9387,278.6901 C25.2347,278.6901 22.8367,281.9421 22.8367,284.5801 C22.8367,286.5791 24.1147,287.8311 25.6607,288.1241 C23.9287,288.8971 22.9697,289.8031 22.9697,290.8691 C22.9697,291.4821 23.1827,291.9091 23.6887,292.3081 C19.6917,293.4811 18.1197,294.8131 18.1197,296.7061 C18.1197,298.5441 20.5447,299.3171 23.4227,299.3171 C28.2987,299.3171 32.3767,296.6791 32.3767,294.4671 L32.3767,294.4671 Z M26.5937,287.1651 C25.7137,287.1651 25.3677,286.4191 25.3677,285.5661 C25.3677,283.1941 26.6467,279.7031 28.6457,279.7031 C29.5257,279.7031 29.8717,280.4491 29.8717,281.3021 C29.8717,283.6741 28.5917,287.1651 26.5937,287.1651 L26.5937,287.1651 Z M21.0777,295.7721 C21.0777,294.3601 22.4367,293.4811 24.3817,292.7081 C25.0217,293.0281 25.9807,293.3741 27.2597,293.8011 C29.2847,294.4671 30.0577,294.7331 30.0577,295.3461 C30.0577,296.6521 27.8457,297.6381 24.8347,297.6381 C22.3027,297.6381 21.0777,297.1051 21.0777,295.7721 L21.0777,295.7721 Z M48.2057,278.0781 L47.0867,277.9981 L45.8337,279.2241 L45.5677,279.2241 C39.4917,279.2241 34.2417,286.0461 34.2417,291.0021 C34.2417,292.3881 35.0947,293.1871 36.4267,293.1871 C37.9987,293.1871 39.5447,290.9491 41.2767,288.5511 L41.1967,289.4031 C40.9837,291.8551 41.7297,293.1871 43.0087,293.1871 C44.5017,293.1871 45.8607,290.8691 46.8997,288.5771 L46.2067,288.5771 C45.4877,289.6171 44.8207,290.2291 44.2887,290.2291 C43.7287,290.2291 43.3287,289.2171 44.2887,287.0591 L48.2057,278.0781 Z M36.9857,289.0301 C36.9857,285.7521 40.6377,281.3021 42.6897,281.3021 C43.1427,281.3021 43.5687,281.3551 43.9417,281.4621 L41.8097,287.1381 C40.5837,288.6311 38.6917,290.4431 37.8127,290.4431 C37.3057,290.4431 36.9857,290.0171 36.9857,289.0301 L36.9857,289.0301 Z M51.1097,290.8431 L58.5457,271.3621 L58.3057,271.0691 L53.6417,271.6021 L53.6417,272.1621 L54.5477,272.8541 C55.3737,273.4941 55.1077,274.1071 54.3607,276.0791 L48.5517,291.3751 C48.1257,292.2021 48.6847,293.1871 49.6177,293.1871 C51.7497,293.1871 54.0147,291.2691 55.0277,288.5771 L54.3347,288.5771 C53.6417,289.5631 52.2027,290.6561 51.1097,290.8431 L51.1097,290.8431 Z M65.2877,274.9061 C66.2467,274.9061 67.0467,274.1341 67.0467,273.1471 C67.0467,272.1881 66.2467,271.3891 65.2877,271.3891 C64.3007,271.3891 63.5287,272.1881 63.5287,273.1471 C63.5287,274.1341 64.3007,274.9061 65.2877,274.9061 L65.2877,274.9061 Z M64.5417,280.2361 C64.8347,279.2501 64.1687,278.6901 63.6617,278.6901 C61.5297,278.6901 58.9987,280.6091 57.9857,283.3011 L58.6787,283.3011 C59.3717,282.3151 60.5437,281.2221 61.6367,281.0361 L57.5587,291.6421 C57.1857,292.6281 57.9317,293.1871 58.4387,293.1871 C60.4637,293.1871 62.8357,291.2421 63.8487,288.5771 L63.1557,288.5771 C62.4627,289.5631 61.2897,290.6561 60.1977,290.8431 L64.5417,280.2361 Z M67.8447,280.7431 L70.2977,280.7431 L66.4057,291.3751 C66.0597,292.2821 66.5397,293.1871 67.4717,293.1871 C69.6837,293.1871 73.2557,291.0021 74.5077,288.0181 L73.8147,288.0181 C72.8287,289.0571 70.9367,290.4431 69.3107,290.7361 L72.8817,280.7431 L76.5327,280.7431 L76.9857,279.2241 L73.4417,279.2241 L74.8007,275.3861 L73.3887,275.3861 L70.8567,279.2241 L67.8447,279.6501 L67.8447,280.7431 Z M83.7807,277.3321 L88.9777,272.4811 L88.9777,271.9221 L86.1797,271.9221 L82.9817,277.3321 L83.7807,277.3321 Z M85.2467,288.0441 L84.3407,288.0441 C83.1947,289.4031 81.9687,290.4691 80.7427,290.4691 C79.4907,290.4691 78.8507,289.7231 78.8507,288.0441 C78.8507,287.3521 78.9307,286.6591 79.0647,286.0191 L86.4457,283.5941 C87.8847,280.1831 86.1527,278.6901 84.1277,278.6901 C80.6367,278.6901 76.6657,284.5271 76.6657,289.6441 C76.6657,291.9351 77.7587,293.1871 79.4637,293.1871 C81.4627,293.1871 83.5417,291.2421 85.2467,288.0441 L85.2467,288.0441 Z M82.7147,280.6631 C83.7007,280.6631 84.5537,281.4091 84.1007,283.3011 L79.5177,284.3671 C80.3167,282.2351 81.6497,280.6631 82.7147,280.6631 L82.7147,280.6631 Z" id="Fill-48" fill="#000000" mask="url(#mask-2)"></path>
                    <path d="M16.8401,239.8897 L7.1401,239.8897 L6.8731,240.7157 C9.7251,241.3027 9.9911,241.5687 8.6591,245.2457 L5.5141,253.9867 C4.1821,257.6377 3.6221,257.9317 0.3441,258.5167 L0.1041,259.3437 L14.8681,259.3437 L18.0661,253.6407 L16.9461,253.6407 C15.1341,255.6397 13.0031,258.1437 9.7251,258.1437 C7.2461,258.1437 6.9531,257.7177 8.2861,253.9867 L11.4301,245.2457 C12.7361,241.5957 13.3221,241.3027 16.6001,240.7157 L16.8401,239.8897 Z M27.5791,241.5957 C28.5391,241.5957 29.3381,240.8227 29.3381,239.8367 C29.3381,238.8767 28.5391,238.0777 27.5791,238.0777 C26.5931,238.0777 25.8201,238.8767 25.8201,239.8367 C25.8201,240.8227 26.5931,241.5957 27.5791,241.5957 L27.5791,241.5957 Z M26.8331,246.9247 C27.1261,245.9387 26.4601,245.3797 25.9541,245.3797 C23.8211,245.3797 21.2901,247.2977 20.2781,249.9897 L20.9701,249.9897 C21.6631,249.0037 22.8361,247.9107 23.9281,247.7247 L19.8511,258.3307 C19.4781,259.3167 20.2241,259.8767 20.7301,259.8767 C22.7561,259.8767 25.1281,257.9317 26.1401,255.2657 L25.4471,255.2657 C24.7551,256.2517 23.5821,257.3447 22.4891,257.5317 L26.8331,246.9247 Z M41.3301,248.3377 C41.3301,246.1787 40.5301,245.3797 39.0381,245.3797 C37.1731,245.3797 35.4141,247.3517 33.6551,249.7497 L38.1051,238.0507 L37.8651,237.7577 L33.2021,238.2907 L33.2021,238.8497 L34.1081,239.5437 C34.9341,240.1827 34.6681,240.8487 33.9211,242.7677 L29.1251,255.1327 C28.7781,256.0387 28.3521,257.1047 28.3521,257.3977 C28.3521,258.6777 30.0841,259.8767 31.6561,259.8767 C35.2801,259.8767 41.3301,253.3477 41.3301,248.3377 L41.3301,248.3377 Z M32.9351,257.7177 C32.2161,257.7177 31.1761,257.0517 31.1761,256.4657 C31.1761,256.2787 31.4961,255.4527 31.8961,254.4137 L33.0951,251.2427 C34.3741,249.7227 36.3191,248.0977 37.4121,248.0977 C38.0781,248.0977 38.5851,248.5237 38.5851,249.5097 C38.5851,252.4147 35.8671,257.7177 32.9351,257.7177 L32.9351,257.7177 Z M51.0291,254.7327 L50.1241,254.7327 C48.9781,256.0927 47.7521,257.1587 46.5261,257.1587 C45.2741,257.1587 44.6341,256.4117 44.6341,254.7327 C44.6341,254.0397 44.7141,253.3477 44.8471,252.7077 L52.2291,250.2827 C53.6681,246.8717 51.9361,245.3797 49.9101,245.3797 C46.4191,245.3797 42.4481,251.2157 42.4481,256.3317 C42.4481,258.6237 43.5411,259.8767 45.2471,259.8767 C47.2451,259.8767 49.3241,257.9317 51.0291,254.7327 L51.0291,254.7327 Z M48.4981,247.3517 C49.4841,247.3517 50.3371,248.0977 49.8831,249.9897 L45.3001,251.0557 C46.1001,248.9237 47.4321,247.3517 48.4981,247.3517 L48.4981,247.3517 Z M64.8611,248.6307 C65.3671,246.8987 65.1001266,245.3797 63.7681,245.3797 C62.1951,245.3797 61.7961,246.5787 60.1971,250.0157 L60.1971,248.0447 C60.1971,246.6317 59.7441,245.3797 58.4651,245.3797 C56.9721,245.3797 55.6131,247.6977 54.5741,249.9897 L55.2671,249.9897 C55.9861,248.9507 56.6531,248.3377 57.1861,248.3377 C57.8251,248.3377 58.1721,249.3237 57.1861,251.5087 L54.3071,257.9047 C53.7751,259.1037 54.3341,259.8767 55.5071,259.8767 C56.2261,259.8767 56.5461,259.6897 56.8391,258.9167 L59.6641,251.4287 C60.4641,250.4427 61.1831,249.5897 62.0891,248.6307 L64.8611,248.6307 Z M66.7791,247.4317 L68.7241,247.4317 L64.8341,258.0647 C64.4871,258.9707 64.9661,259.8767 65.9001,259.8767 C68.1111,259.8767 71.6821,257.6917 72.9351,254.7067 L72.2421,254.7067 C71.2561,255.7457 69.3641,257.1317 67.7381,257.4247 L71.3091,247.4317 L74.9601,247.4317 L75.4131,245.9117 L71.8691,245.9117 L73.2281,242.0747 L71.8161,242.0747 L69.2841,245.9117 L66.7791,246.3387 L66.7791,247.4317 Z M82.0481,244.0197 L87.2451,239.1697 L87.2451,238.6107 L84.4471,238.6107 L81.2491,244.0197 L82.0481,244.0197 Z M83.5141,254.7327 L82.6081,254.7327 C81.4621,256.0927 80.2361,257.1587 79.0101,257.1587 C77.7581,257.1587 77.1181,256.4117 77.1181,254.7327 C77.1181,254.0397 77.1981,253.3477 77.3321,252.7077 L84.7131,250.2827 C86.1531,246.8717 84.4201,245.3797 82.3951,245.3797 C78.9041,245.3797 74.9331,251.2157 74.9331,256.3317 C74.9331,258.6237 76.0261,259.8767 77.7311,259.8767 C79.7301,259.8767 81.8091,257.9317 83.5141,254.7327 L83.5141,254.7327 Z M80.9831,247.3517 C81.9681,247.3517 82.8211,248.0977 82.3681,249.9897 L77.7841,251.0557 C78.5841,248.9237 79.9171,247.3517 80.9831,247.3517 L80.9831,247.3517 Z" id="Fill-49" fill="#000000" mask="url(#mask-2)"></path>
                    <path d="M38.929,34.5782 C38.838,34.4872 39.202,34.5782 39.294,34.3962 L38.564,34.3962 C38.473,34.3962 38.473,34.3052 38.473,34.2132 C38.017,34.3052 37.47,34.4872 37.013,34.5782 C36.375,34.7612 35.828,35.2162 35.098,35.3992 C34.095,35.7642 33.274,36.5842 32.18,36.9492 C32.089,36.9492 32.089,36.8582 32.089,36.7672 C32.18,36.4942 32.545,36.4022 32.727,36.1282 C32.727,36.0372 32.727,35.9462 32.636,35.9462 C33.366,34.9432 34.369,34.3962 35.281,33.5752 L35.281,33.3012 C35.554,32.9362 36.011,32.7542 36.193,32.2982 C36.284,32.0242 36.649,31.6602 37.105,31.4772 C37.013,31.3862 36.831,31.3862 36.831,31.2032 C36.466,31.2032 36.101,31.3862 35.737,31.1132 C35.907,30.9422 36.102,30.8492 36.308,30.7882 C36.23,30.7722 36.159,30.7342 36.101,30.6572 C36.011,30.4742 36.278,30.2702 36.557,30.2012 C36.922,30.1092 37.378,30.1092 37.652,29.8362 C37.013,29.7452 36.284,30.0182 35.645,29.6532 C36.101,28.4682 36.831,27.4642 37.926,26.9172 C38.017,26.9172 38.199,26.9172 38.199,27.0082 C38.199,27.4642 37.926,27.8292 37.47,27.9202 C38.199,28.1032 38.929,28.1032 39.658,28.4682 C39.567,28.6502 39.385,28.5592 39.294,28.5592 C39.75,28.8322 40.297,28.6502 40.753,29.0152 C40.479,29.2882 40.205,29.0152 39.932,29.0152 C42.76,29.8362 45.769,30.4742 48.14,32.2982 C46.134,33.3012 44.036,33.7572 41.847,34.2132 C41.574,34.2132 41.391,34.2132 41.117,34.1222 C41.117,34.2132 41.117,34.3962 41.027,34.3962 C40.661,34.3962 40.388,34.3962 40.115,34.5782 C39.75,34.7612 39.202,34.8522 38.929,34.5782 M37.061,40.9222 C37.054,40.9282 37.046,40.9332 37.038,40.9382 C36.697,41.1792 36.357,41.4242 35.997,41.6332 C35.607,41.8592 35.199,42.0312 34.794,42.2242 C34.791,42.2162 34.787,42.2082 34.783,42.2012 C34.752,42.1592 34.688,42.1322 34.628,42.1642 C34.283,42.3512 33.989,42.5982 33.71,42.8632 C33.668,42.9042 33.625,42.9452 33.583,42.9862 C33.581,42.9892 33.578,42.9912 33.576,42.9932 L33.569,43.0002 C33.526,43.0432 33.482,43.0862 33.439,43.1292 C33.434,43.1352 33.429,43.1402 33.424,43.1442 C33.421,43.1472 33.421,43.1502 33.418,43.1532 C33.354,43.2182 33.291,43.2832 33.22,43.3662 C33.175,43.4202 33.159,43.4532 33.098,43.4942 C33.042,43.5322 32.885,43.5312 32.899,43.4262 C32.9,43.4192 32.9,43.4132 32.9,43.4082 C32.846,43.4362 32.793,43.4642 32.739,43.4912 C32.688,43.5152 32.642,43.5422 32.596,43.5692 C32.576,43.5612 32.555,43.5582 32.533,43.5592 C32.51,43.5612 32.487,43.5662 32.468,43.5822 C32.356,43.6692 32.245,43.7622 32.138,43.8592 C31.948,44.0322 31.768,44.2202 31.609,44.4222 C31.606,44.4252 31.603,44.4282 31.6,44.4312 L31.583,44.4552 C31.574,44.4672 31.564,44.4792 31.555,44.4912 C31.546,44.5032 31.536,44.5162 31.526,44.5292 C31.524,44.5332 31.52,44.5362 31.517,44.5402 C31.496,44.5702 31.476,44.6002 31.455,44.6312 C31.454,44.6322 31.453,44.6342 31.452,44.6362 C31.437,44.6532 31.41,44.6652 31.377,44.6722 C31.365,44.6542 31.352,44.6362 31.341,44.6182 C31.332,44.6032 31.324,44.5882 31.315,44.5742 C31.287,44.5262 31.262,44.4772 31.237,44.4272 C31.237,44.4262 31.236,44.4242 31.235,44.4222 C31.227,44.4072 31.22,44.3922 31.213,44.3762 C31.312,44.2702 31.407,44.1612 31.499,44.0482 C31.506,44.0412 31.512,44.0342 31.518,44.0262 C31.55,43.9872 31.581,43.9492 31.613,43.9092 C31.664,43.8442 31.715,43.7792 31.765,43.7142 C31.784,43.6902 31.803,43.6662 31.821,43.6422 C31.921,43.5112 32.017,43.3842 32.106,43.2572 C32.109,43.2532 32.111,43.2502 32.113,43.2472 C32.126,43.2282 32.139,43.2082 32.152,43.1892 C32.196,43.1252 32.238,43.0592 32.277,42.9942 C32.313,42.9342 32.346,42.8732 32.377,42.8112 C32.38,42.8072 32.382,42.8032 32.385,42.7982 C32.387,42.7912 32.391,42.7862 32.394,42.7792 C32.399,42.7682 32.404,42.7562 32.409,42.7452 C32.441,42.6772 32.47,42.6052 32.495,42.5332 C32.498,42.5252 32.501,42.5162 32.504,42.5092 C32.511,42.4892 32.517,42.4692 32.524,42.4492 C32.534,42.4162 32.544,42.3822 32.553,42.3492 L32.553,42.3482 C32.554,42.3412 32.556,42.3332 32.558,42.3262 C32.569,42.2822 32.581,42.2382 32.59,42.1922 C32.594,42.1682 32.588,42.1482 32.578,42.1312 C32.677,41.9592 32.8,41.7952 32.94,41.6392 C32.927,41.6472 32.911,41.6542 32.898,41.6622 C32.768,41.7462 32.681,41.8642 32.56,41.9542 C32.46,42.0292 32.277,41.9062 32.395,41.8182 C32.475,41.7582 32.536,41.6932 32.602,41.6302 C32.606,41.6252 32.608,41.6202 32.613,41.6152 C32.762,41.4672 32.906,41.2772 33.077,41.1522 C33.182,41.0762 33.273,41.0122 33.358,40.9382 C33.371,40.9272 33.385,40.9142 33.398,40.9022 C33.461,40.8182 33.53,40.7422 33.602,40.6722 C33.605,40.6692 33.608,40.6652 33.612,40.6622 C34.484,39.8202 35.954,39.8582 37.105,39.3212 C37.561,39.1382 38.108,39.4112 38.564,39.3212 C38.838,39.3212 39.111,39.3212 39.385,39.5032 C38.566,39.9502 37.808,40.4532 37.061,40.9222 M38.696,41.6762 C38.654,41.7762 38.561,41.8622 38.471,41.9422 C38.585,41.9652 38.665,42.0152 38.591,42.0832 C38.379,42.2772 38.178,42.4722 37.9,42.5652 C37.88,42.5722 37.825,42.5802 37.76,42.5842 C37.648,42.6932 37.536,42.8002 37.419,42.9032 C37.311,42.9992 36.81,42.9302 36.963,42.7942 C37.195,42.5892 37.409,42.3662 37.637,42.1582 C37.766,42.0402 37.902,41.9272 38.016,41.7942 C38.08,41.7212 38.132,41.6492 38.212,41.5922 C38.287,41.5402 38.769,41.4972 38.696,41.6762 M34.46,28.0122 C34.369,28.1942 34.268,28.2132 34.186,28.3762 C34.095,28.5592 34.004,28.6502 33.822,28.7412 C33.73,28.7412 33.639,28.7412 33.639,28.6502 C33.73,28.2852 34.004,27.9202 34.369,27.8292 C34.46,27.8292 34.46,27.9202 34.46,28.0122 M26.89,34.0312 C26.89,34.0312 26.799,33.9402 26.799,33.8492 C27.985,32.2982 28.897,30.8392 29.718,29.1972 C30.903,28.5592 31.887,27.6292 32.818,26.6432 C34.369,25.0022 36.011,23.5432 37.926,22.6312 C38.655,22.3572 39.567,22.4482 40.297,22.7222 C40.023,23.0872 39.567,22.9952 39.202,23.2692 C39.111,23.2692 39.02,23.2692 38.929,23.1782 C39.02,23.0872 39.02,22.9952 39.02,22.9042 C38.108,23.9082 36.831,24.3642 36.101,25.5492 C35.554,26.4612 35.19,27.6472 34.004,27.9202 C33.639,28.0122 34.095,27.6472 33.913,27.7382 C31.085,29.4712 29.079,31.5682 26.89,34.0312 M40.844,36.0372 C40.661,36.0372 40.297,36.1282 40.388,35.9462 C40.479,35.4902 41.117,35.4902 41.482,35.3072 C41.665,35.2162 41.938,35.0342 42.121,35.1252 C42.303,35.3992 42.577,35.3072 42.76,35.4902 C42.212,36.0372 41.482,35.7642 40.844,36.0372 M54.869,42.5712 C55.387,42.0532 55.91,41.4962 56.429,40.9382 L56.418,40.9382 C57.387,39.8422 58.337,38.7962 59.46,37.8332 C59.803,37.5282 60.135,37.2582 60.452,37.0402 C60.543,36.9492 60.543,36.7672 60.635,36.6762 C60.179,36.8582 59.905,37.2232 59.449,37.4052 C59.358,37.4052 59.267,37.3142 59.358,37.2232 C59.683,36.9792 60.008,36.7362 60.332,36.4922 C60.312,36.4932 60.291,36.4942 60.27,36.4942 C60.179,36.4942 60.179,36.4022 60.179,36.3112 C58.993,36.1282 58.081,36.9492 57.26,37.6792 C57.077,37.7702 56.895,37.5882 56.804,37.5882 C55.436,38.0442 54.433,39.2292 53.065,39.7772 L53.065,39.5942 C52.518,39.7772 51.986,40.1072 51.423,40.2332 C50.602,40.4152 49.873,40.3242 49.143,40.3242 C48.038,40.4342 46.932,40.6782 45.827,40.9142 C45.795,40.9222 45.763,40.9302 45.732,40.9382 C45.139,41.1002 44.579,41.3222 44.032,41.6222 C44.011,41.6342 43.991,41.6462 43.97,41.6592 C43.925,41.7162 43.88,41.7702 43.838,41.8162 C43.642,42.0322 43.473,42.2292 43.213,42.3622 C42.652,42.6472 42.195,43.1442 41.7,43.5472 C41.664,43.5762 41.611,43.5902 41.554,43.5942 C41.065,44.0632 40.582,44.5382 40.085,44.9992 C40.05,45.0322 39.909,45.0502 39.807,45.0332 C39.809,45.0302 39.813,45.0282 39.815,45.0252 C39.832,44.9952 39.849,44.9672 39.867,44.9382 C39.944,44.8092 40.022,44.6812 40.101,44.5532 C40.189,44.4112 40.279,44.2692 40.371,44.1292 C40.496,43.9412 40.623,43.7542 40.76,43.5742 C40.795,43.5272 40.785,43.4852 40.756,43.4542 C40.727,43.4242 40.679,43.4072 40.63,43.4072 C41.085,42.9662 41.626,42.5892 42.161,42.2642 C42.161,42.2592 42.16,42.2542 42.16,42.2492 C42.1,42.2702 42.012,42.2212 42.057,42.1572 C42.116,42.0772 42.16,41.9912 42.215,41.9092 C42.225,41.8812 42.234,41.8542 42.244,41.8272 L42.175,41.7552 C42.028,41.8512 41.871,41.9422 41.746,42.0552 C41.528,42.2512 41.357,42.6542 41.026,42.6502 C41.005,42.6492 40.94,42.6462 40.888,42.6302 C40.848,42.6232 40.814,42.6122 40.792,42.5982 C40.796,42.5902 40.8,42.5832 40.804,42.5762 C40.808,42.5682 40.813,42.5592 40.818,42.5512 L40.831,42.5282 C40.845,42.5012 40.86,42.4752 40.874,42.4492 C40.888,42.4232 40.903,42.3972 40.918,42.3702 C40.929,42.3492 40.941,42.3282 40.952,42.3072 C40.974,42.2692 40.995,42.2302 41.017,42.1922 C41.033,42.1642 41.049,42.1372 41.065,42.1092 C41.104,42.0422 41.143,41.9752 41.183,41.9082 C41.201,41.8762 41.22,41.8432 41.239,41.8112 C41.272,41.7562 41.303,41.7002 41.336,41.6452 C41.381,41.5702 41.334,41.5072 41.267,41.4822 C41.437,41.2632 41.643,41.0792 41.892,40.9382 L41.865,40.9382 C42.214,40.7632 42.563,40.5492 42.912,40.3522 C42.962,40.3092 43.012,40.2652 43.063,40.2222 C42.542,40.3972 42.075,40.6332 41.612,40.9382 C41.612,40.9382 41.492,40.9872 41.458,41.0212 C41.458,41.0212 41.353,41.0602 41.231,40.9382 C41.218,40.9212 41.209,40.9012 41.209,40.8712 C41.3,40.6882 41.574,40.5972 41.756,40.4152 C41.847,40.4152 41.938,40.4152 41.938,40.5062 C44.857,38.2262 48.87,38.7732 52.244,37.5882 C52.518,37.4052 52.791,37.2232 53.065,37.0402 C53.521,36.8582 53.886,36.4022 54.433,36.1282 C55.162,35.5812 55.71,34.9432 55.983,34.0312 C55.983,33.9402 55.892,33.8492 55.892,33.8492 C54.707,35.1252 53.339,36.1282 51.879,36.8582 C49.964,37.8612 47.867,37.6792 45.86,37.9532 C45.951,37.7702 46.134,37.7702 46.316,37.7702 C46.316,37.4962 46.498,37.4052 46.681,37.2232 L46.954,37.2232 C47.046,37.2232 47.046,37.0402 47.137,37.0402 C47.319,37.0402 47.593,36.9492 47.502,36.9492 C47.228,36.5842 46.681,37.2232 46.225,36.9492 C46.408,36.7672 46.316,36.4942 46.498,36.4022 L46.863,36.4022 C46.863,36.2202 47.046,36.0372 47.046,36.0372 C48.414,35.2162 49.69,34.5782 50.967,33.8492 C50.694,33.8492 50.512,34.1222 50.238,33.9402 C50.42,33.9402 50.238,33.6662 50.42,33.6662 C51.423,33.3922 52.244,32.8452 53.247,32.4802 C52.883,32.4802 52.609,32.7542 52.244,32.4802 C52.427,32.3892 52.518,32.2072 52.791,32.2072 L52.791,31.9332 C52.791,31.8422 52.883,31.8422 52.974,31.8422 C52.883,31.8422 52.791,31.7512 52.791,31.7512 C52.883,31.5682 53.156,31.6602 53.339,31.4772 C53.247,31.4772 53.065,31.4772 53.065,31.3862 C53.339,31.0212 53.795,30.9302 54.251,30.8392 C54.159,30.6572 53.886,30.8392 53.886,30.6572 C53.886,30.5652 53.977,30.5652 54.068,30.5652 L53.886,30.5652 C53.703,30.4742 53.795,30.2912 53.795,30.2012 C54.342,29.5622 54.342,28.7412 54.615,28.0122 C54.524,28.0122 54.433,28.0122 54.433,27.9202 C53.521,28.9242 52.062,29.2882 50.694,29.6532 L50.238,29.6532 C49.782,29.8362 49.143,29.8362 48.687,29.5622 C48.323,29.3802 48.14,29.1062 47.775,28.8322 C47.046,28.3762 46.316,28.0122 45.495,27.7382 C43.215,27.0082 40.844,26.6432 38.473,26.7352 C39.476,26.1882 40.583,26.1412 41.665,25.8232 C43.215,25.3672 44.675,24.8202 46.316,24.9112 C46.042,24.8202 45.678,24.9112 45.404,24.9112 C44.127,24.8202 42.85,25.1842 41.482,25.4582 C40.571,25.6402 39.75,26.0052 38.838,26.1882 C38.29,26.3702 38.017,26.9172 37.378,26.8262 L37.378,26.5522 C38.29,25.4582 39.385,24.3642 40.844,24.2722 C42.486,23.9992 44.036,24.2722 45.678,24.4552 C46.863,24.5462 47.958,24.8202 49.143,25.0932 C49.599,25.0932 49.69,25.8232 50.055,25.9142 C50.602,26.0972 51.15,25.9142 51.697,26.2792 C51.697,26.0972 51.606,25.9142 51.697,25.7322 C52.062,25.3672 52.518,25.8232 52.883,25.6402 C53.612,25.1842 52.244,24.3642 51.879,23.7252 C51.879,23.6342 51.971,23.5432 51.971,23.5432 C52.7,24.1812 53.247,24.9112 54.159,25.3672 C54.615,25.5492 55.71,25.8232 55.527,25.2762 C55.071,24.2722 54.159,23.4522 53.429,22.5392 L53.429,22.1752 C53.247,22.1752 53.247,22.0832 53.156,21.9932 L53.156,21.6282 C52.791,21.4452 52.883,21.0802 52.7,20.8072 C52.427,20.3512 52.609,19.7122 52.427,19.1652 C52.244,18.6182 52.153,18.1622 52.062,17.6152 C51.788,16.0642 51.423,14.6962 51.241,13.2372 C51.058,11.5042 52.244,10.1362 53.065,8.5862 C53.703,7.4922 54.433,6.3972 55.618,5.6672 C55.892,4.5732 56.622,3.6612 57.351,2.7492 C58.079,1.8592 59.29,1.3172 60.167,0.9252 C61.44,0.3562 62.59,0.0002 62.591,0.0002 L0,0.0002 L0,48.2622 L44.325,48.2622 C46.061,47.0122 47.796,46.4182 50.219,45.2242 C51.364,44.6602 53.982,43.4582 54.869,42.5712" id="Fill-50" fill="#2F3672" mask="url(#mask-2)"></path>
                    <path d="M132.722,0.0001 L80.805,0.0001 C80.806,0.0001 80.903,0.0161 81.298,0.2281 C81.72,0.4541 82.265,0.7461 82.608,0.9251 C83.277,1.2751 83.928,1.7131 84.347,2.3841 C84.529,2.6581 84.803,3.2051 84.62,3.5701 C84.438,4.0261 84.347,4.7551 83.891,4.9381 C83.344,5.2111 82.614,5.2111 81.976,5.1201 C81.611,5.1201 81.246,5.0291 80.881,4.9381 C82.249,5.4851 83.526,6.1241 84.438,7.4001 C84.529,7.5831 84.894,7.6741 85.259,7.6741 C85.35,7.6741 85.35,7.8561 85.35,7.9481 C85.168,8.1301 84.985,8.2211 85.076,8.4951 L85.35,8.4951 C85.806,8.3131 85.715,7.4001 86.353,7.6741 C86.809,7.9481 86.992,8.5861 86.718,9.0421 C86.353,9.4071 85.989,9.6801 85.624,9.9541 C85.533,10.1361 85.533,10.4101 85.624,10.5921 C85.897,10.9571 85.989,11.3221 86.08,11.6871 C86.353,12.3251 86.445,13.0551 86.718,13.6931 C87.083,15.0611 87.448,16.4291 87.356,17.7971 C87.356,18.5271 86.992,19.1651 87.265,19.8951 C87.448,20.6251 87.904,21.1721 88.268,21.8101 C88.633,22.3571 88.998,22.7221 89.272,23.2701 C89.819,24.1811 90.822,25.0931 90.366,26.1881 C90.093,26.8261 89.089,26.7351 88.451,27.1001 C87.904,27.5561 88.36,28.2851 88.633,28.7411 C89.089,29.5621 88.086,30.1091 87.448,30.3831 C87.63,30.6571 87.995,30.5651 88.086,30.7481 C88.177,31.2041 88.633,31.4781 88.36,31.9341 C87.995,32.4801 86.901,32.7541 87.448,33.5751 C87.812,34.2131 87.576,34.9221 87.356,35.5821 C87.083,36.4021 86.353,36.7671 85.715,36.9491 C85.168,37.1321 84.529,37.1321 83.982,37.0411 C83.8,36.9491 83.618,36.8581 83.435,36.8581 C81.885,36.6761 80.334,36.2201 78.784,36.2201 C78.327,36.3111 77.871,36.4021 77.507,36.5841 C77.095,36.8871 76.728,37.2151 76.403,37.5611 C76.399,37.5651 76.396,37.5691 76.392,37.5731 C76.324,37.6461 76.258,37.7191 76.193,37.7931 C76.153,37.8401 76.114,37.8871 76.076,37.9341 C76.05,37.9651 76.023,37.9961 75.998,38.0281 C75.731,38.3611 75.493,38.7131 75.28,39.0791 C75.266,39.1021 75.253,39.1251 75.24,39.1481 C75.216,39.1911 75.193,39.2331 75.169,39.2761 C74.87,39.8311 74.643,40.3961 74.479,40.9501 C73.859,43.0381 74.13,44.8301 74.565,45.2651 C74.686,45.3861 77.575,46.2781 79.588,47.1731 C80.532,47.5931 81.192,47.9171 81.74,48.2621 L132.722,48.2621 L132.722,0.0001 Z" id="Fill-51" fill="#C10E1A" mask="url(#mask-2)"></path>
                    <path d="M83.8929,17.6065 C84.2579,17.6975 84.8049,17.6975 84.8049,17.8795 C84.6229,18.6095 83.5279,18.7925 82.9809,19.5225 L82.7069,19.5225 C82.4339,19.7045 82.5249,20.1605 82.2509,20.1605 C81.9769,20.0685 81.7039,20.1605 81.4309,20.2515 C81.7949,20.6165 82.2509,20.8905 82.7979,20.7985 C82.8899,20.7985 83.0719,20.9815 83.0719,21.1635 C83.0719,21.1635 83.1629,21.1635 83.2539,21.0725 C83.3459,21.0725 83.4369,21.0725 83.4369,21.1635 L83.4369,21.5285 C83.1629,21.8935 82.7069,21.7105 82.3429,21.8025 C83.0719,21.9845 83.8019,21.9845 84.4399,21.8025 C84.9869,21.6195 84.4399,20.7075 84.8049,20.2515 C84.6229,20.2515 84.8049,19.9785 84.6229,19.9785 C84.8049,19.7955 84.9869,19.5225 85.1699,19.4305 C85.3519,19.4305 85.6259,19.3395 85.7169,19.1565 C85.7169,18.9745 85.3519,18.8835 85.4429,18.7005 C85.9909,18.3365 86.4469,17.7885 86.2649,17.2415 C86.1729,16.9685 85.4429,16.9685 84.9869,16.7855 C84.5319,16.6035 83.9839,16.7855 83.4369,16.8775 C82.9809,16.8775 82.5249,17.1505 82.0689,17.2415 C81.4309,17.4235 80.8839,17.7885 80.3359,18.1535 C80.9749,17.8795 81.6129,17.7885 82.3429,17.6065 C82.8899,17.6065 83.3539,17.4715 83.8929,17.6065" id="Fill-52" fill="#9A9A9A" mask="url(#mask-2)"></path>
                </g>
            </g>
        </g>
    </g>
</svg>